P3
# 8-bit ppm RGB
60 59
255
255 255 255 255 255 255 255 255 255 255 255 255 255 255 255 255 255 255 255 255 255 255 255 255
254 255 255 231 233 240 204 208 212 178 179 180 175 173 173 161 159 159 159 157 155 154 156 152
146 153 150 141 144 141 144 144 143 144 145 145 143 145 144 141 146 143 133 142 138 135 139 134
137 136 133 139 141 139 129 134 131 132 135 132 131 132 128 128 131 126 124 129 125 123 127 124
123 127 124 124 128 125 120 125 122 118 123 121 115 121 119 114 119 117 112 117 116 116 119 119
113 115 115 110 114 113 106 113 112 107 114 112 107 114 113 104 111 111 104 111 109 105 112 108
103 111 108 106 111 108 102 105 104  99 100 100 101 101 101 100 103 102  94 101  99  98 102  99
 99 100  98  96  99  97  93  98  98  94  97  98
255 255 255 255 255 255 255 255 255 255 255 255 255 255 255 255 255 255 255 255 255 254 255 255
252 255 255 237 244 247 203 215 219 183 189 194 178 178 179 163 163 161 157 156 154 154 155 152
151 154 152 146 148 147 148 148 148 145 146 146 144 147 144 142 146 140 139 145 140 138 140 136
136 135 133 133 134 133 129 133 132 131 133 131 132 132 129 129 131 126 124 128 124 124 127 124
124 127 123 124 128 122 122 127 122 120 124 119 117 121 118 114 118 116 111 116 115 112 116 116
113 117 117 109 114 115 105 112 112 107 114 113 110 116 115 106 112 111 105 110 109 103 108 106
100 106 105 103 107 106 106 108 108 100 102 102  99 102 102  97 102 102  93 100  98  95 100  96
 95  99  96  94  98  95  91  96  95  93  97  98
255 255 255 255 255 255 255 255 255 255 255 255 255 255 255 255 255 255 255 255 255 253 255 255
244 249 253 242 255 255 206 227 231 189 200 204 182 184 186 167 168 169 159 159 159 156 156 155
154 154 152 152 152 150 149 150 149 146 148 147 141 145 143 142 146 142 138 142 139 138 139 137
137 136 133 136 137 133 129 132 130 131 132 131 132 132 130 131 133 129 125 129 126 123 126 124
124 126 123 125 128 123 120 125 121 120 123 119 118 120 118 115 118 117 111 116 115 110 115 115
110 116 115 105 112 110 104 112 110 104 111 110 108 114 113 108 113 113 106 110 110 103 107 108
102 106 106 103 105 104 104 105 103 101 105 103  94 101 100  94 101 101  94 101 100  94 101  98
 92  99  96  92  98  94  92  97  95  93  98  98
255 255 255 255 255 255 255 255 255 255 255 255 255 255 255 255 255 255 255 255 255 248 249 255
240 243 249 240 248 255 200 212 217 191 199 203 180 184 188 166 167 171 162 162 164 158 158 158
153 155 153 150 152 148 148 150 147 144 147 145 140 144 142 142 146 143 135 140 139 137 139 139
137 137 134 135 136 129 130 132 129 127 130 130 129 132 130 128 132 128 126 132 130 126 129 128
125 126 123 122 125 120 119 125 121 118 122 119 117 119 117 114 118 117 111 116 115 110 116 115
108 115 112 106 113 107 105 112 108 106 111 109 109 113 112 104 110 110  99 107 109 100 106 110
101 106 107 101 104 102 101 102  99 101 104  99  95 101  99  97 102 102  98 102 101  95 100  98
 92  98  94  93 100  94  90  98  94  92 100  98
255 255 255 255 255 255 255 255 255 255 255 255 255 255 255 255 255 255 255 255 255 245 246 250
247 249 254 238 241 248 224 228 232 193 198 200 182 188 188 165 167 166 164 163 162 158 159 158
150 154 151 150 153 148 147 150 147 142 146 145 141 146 146 141 146 146 137 143 143 137 140 139
136 137 135 134 135 132 130 132 132 125 129 132 120 127 128 123 130 129 120 128 127 122 126 125
123 124 123 121 125 124 118 125 124 119 124 123 117 120 120 116 120 120 113 119 119 111 118 118
107 115 114 106 113 110 105 111 109 107 111 110 106 109 109 105 113 113  97 110 110  99 108 109
100 106 107 102 105 106 100 101 100 101 104 101  96 102 100 101 104 104 104 105 106 103 106 109
 93  98 101  94 102 106  91 103 108  93 104 110
255 255 255 255 255 255 255 255 255 255 255 255 255 255 255 255 255 255 255 255 255 252 252 255
254 255 255 246 248 255 241 245 249 211 218 219 181 192 190 168 175 169 163 166 162 158 160 157
152 154 149 151 152 145 151 151 148 143 146 146 138 144 145 138 143 146 139 143 143 139 141 139
139 139 138 137 133 133 136 127 130 131 124 130 128 122 126 130 124 126 134 127 127 131 124 123
130 122 123 127 123 126 126 125 127 122 122 123 119 119 119 116 118 118 114 118 118 112 115 115
110 113 113 107 111 111 104 109 109 105 109 108 103 106 106 100 106 106  98 107 107  99 106 105
100 106 107  99 103 107  99 101 102  98 102 100  96 103 102  95 102 101 103 110 113  96  98 106
 89  86  97  86  83  98  84  80  94  84  79  93
255 255 255 255 255 255 255 255 255 255 255 255 255 255 255 255 255 255 255 255 255 255 255 255
255 255 255 253 255 255 240 244 255 224 234 253 192 209 218 172 184 184 154 162 161 152 156 155
153 153 150 152 151 147 150 148 147 143 146 148 135 143 148 136 141 149 131 133 141 125 126 134
121 121 127 126 116 121 115  95 102 119 100 109 111  92 100 116  95 102 111  88  94 114  94 100
114  97 104 114 101 109 115 106 114 117 111 119 120 117 125 123 123 131 119 121 127 120 120 124
117 115 117 110 111 111 105 110 109 106 110 108 105 108 107 105 109 109 103 108 108 102 107 107
101 107 108  97 102 104  94  98  98  95 101 100  93 101 100  91 101 100  94 107 107  68  69  70
 86  75  78  96  81  86 103  83  84 107  86  84
255 255 255 255 255 255 255 255 255 255 255 255 255 255 255 255 255 255 255 255 255 255 255 255
255 255 255 248 253 255 229 240 255 202 215 252 175 190 211 166 177 182 150 158 160 150 155 155
152 154 153 149 150 148 147 147 148 141 141 145 136 135 143 132 123 136 129 112 127 119  97 115
108  82  96 111  78  88 104  64  75  98  58  70  92  52  64  91  51  63  90  50  62  89  50  63
 88  51  64  91  55  69  95  60  74 102  71  86 110  83  99 117  95 112 125 108 121 123 111 120
122 115 119 117 114 113 112 113 111 108 111 108 106 110 109 106 109 109 106 108 108 105 108 108
104 108 108  97 101 102  91  95  95  92  98  98  95 102 101  92 103 101  89 104 101  61  58  53
130 108 104 127 112 108 137 130 119 141 132 114
255 255 255 255 255 255 255 255 255 255 255 255 255 255 255 255 255 255 255 255 255 255 255 255
255 255 255 243 252 254 204 223 233 179 195 213 169 182 192 159 170 173 153 162 163 148 154 154
146 150 152 143 146 151 130 133 141 125 121 133 113 102 113 107  83  93 104  67  76  97  52  60
 99  46  52  98  41  45 100  39  43  99  38  42  99  38  42  98  39  44 102  44  48  97  39  43
 96  38  43  97  37  43 100  38  44  97  40  46  99  47  54  98  54  62 106  69  77 109  84  92
114 101 108 125 118 125 118 116 120 112 114 115 107 113 113 107 110 107 108 108 107 102 103 103
 98 101 101  95  99  99  92  97  97  90  96  96  94 101 100  94 106 104  87 104 102  55  47  45
129  95  95 157 143 145 137 142 140 139 142 136
255 255 255 255 255 255 255 255 255 255 255 255 255 255 255 255 255 255 255 255 255 255 255 255
255 255 255 248 253 255 203 214 215 184 194 194 165 174 174 158 167 168 151 160 161 149 151 152
147 143 149 134 124 136 123 106 122 107  81 102  93  57  71  92  49  56  93  42  44  95  40  38
 98  39  38  98  38  37  99  38  36 100  38  35 101  38  36  99  38  36  99  39  36  98  38  34
 97  37  35  99  37  36 101  38  36  97  37  34  94  37  35  91  38  37  88  39  42  90  48  55
 93  58  69 106  80  96 120 103 114 121 110 116 123 117 117 116 113 107 109 109 106 105 105 104
100 102 101  97 100  99  95  99  99  96 100 100  96 101 100  94 104 101  89 105 104  45  46  46
150 137 141 148 144 152 141 146 152 142 144 149
255 255 255 255 255 255 255 255 255 255 255 255 255 255 255 255 255 255 255 255 255 255 255 255
255 255 255 253 255 255 222 226 230 196 201 209 177 183 188 158 166 168 143 153 160 142 141 153
124 112 123 114  89  99 105  67  76  94  45  54 102  41  46 101  38  40 103  38  38 104  39  36
105  39  36 104  40  37 101  39  36 101  38  34 103  38  34 103  39  35 102  39  35 103  40  36
102  39  36 102  38  36 104  39  37 101  38  36  98  36  34  98  36  35 100  38  38  98  39  41
100  43  47  91  47  53 103  71  75 116  91  94 120 101 105 122 112 118 112 111 112 108 108 105
102 103 102  98 100 100  95  98  98  94  97  97  96 100  98  93 102  98  94 109 108  34  45  46
123 130 134 139 145 151 140 146 152 144 146 152
255 255 255 255 255 255 255 255 255 255 255 255 255 255 255 255 255 255 255 255 255 255 255 255
255 255 255 251 255 255 231 239 247 200 208 225 182 190 200 161 163 166 139 137 150 122 106 130
104  75  91  96  57  66  89  40  43  94  39  36 100  38  36 102  39  37 104  40  37 102  39  35
101  39  35  96  40  35  92  41  36  95  42  37  98  43  37  97  44  37  97  46  40  94  44  39
 92  43  39  95  41  37  98  40  37  97  38  36  96  36  34  97  37  35  98  38  36  97  37  35
 97  37  34  91  38  34  86  40  38 104  65  65 111  79  88 120  98 116 131 118 124 116 111 105
103 105 103  99 101 102  96  98  98  97  99  98  97 100  97  94 102  97 100 113 112  35  44  47
118 124 128 139 144 149 141 146 152 144 145 152
255 255 255 255 255 255 255 255 255 255 255 255 255 255 255 255 255 255 255 255 255 255 255 255
255 255 255 249 255 255 232 244 255 204 215 242 166 176 195 140 138 150 115 100 110 102  71  80
103  56  62  95  42  46 100  40  40 100  38  36 103  39  36 102  39  36 104  41  34 103  43  33
106  48  37 102  53  41 114  73  62 110  67  57 117  72  61 119  77  65 117  78  67 117  80  70
116  80  71 110  66  57 109  57  47 104  49  39 102  43  35  97  38  31  97  38  33  99  38  35
100  37  34  99  37  33  99  38  35  93  40  38 103  57  58 109  74  79 118  93  99 127 117 125
107 111 112 103 105 100  99 100  97 102 103 103  98 100  98  97 103  99 103 114 114  36  44  46
114 119 123 139 144 149 139 144 149 143 144 149
255 255 255 255 255 255 255 255 255 255 255 255 255 255 255 255 255 255 255 255 255 255 255 255
255 255 255 252 255 255 243 249 255 195 198 235 158 159 188 126 111 132  95  63  71  98  55  50
 92  38  35  96  38  37  99  38  37  99  39  37  99  40  37  96  42  37  95  45  34 103  62  45
112  79  61 117  92  73 122 105  88 129 112  97 136 120 104 137 122 104 139 125 109 135 121 106
132 118 103 127 109  94 123 100  83 115  85  66 108  70  55 100  56  44  94  43  35  95  40  35
 98  38  34  99  38  34 101  38  34  97  38  33  94  39  33 101  55  47 105  68  75 117  94 117
130 120 125 114 111  99 100 103  97  99 101 101  99 101 100  96 102  99 106 116 116  38  45  47
109 114 118 139 143 149 140 143 147 142 143 146
255 255 255 255 255 255 255 255 255 255 255 255 255 255 255 255 255 255 255 255 255 255 255 255
255 255 255 255 255 255 213 213 229 176 172 201 123 115 134  96  67  75 101  51  53  95  39  36
100  38  36 102  40  38 103  40  34 100  41  31 105  50  39 106  60  48 121  84  75 131 108 102
128 119 115 131 130 129 126 132 131 126 135 134 121 133 131 121 132 129 123 133 131 127 135 133
127 134 132 127 133 130 125 131 128 135 130 127 131 114 110 128  98  93 122  79  72 103  53  43
104  46  37 100  39  31 103  38  32 101  37  32 102  38  33  95  39  34 101  52  53 108  71  79
124  99 103 124 114 115 101 106 106  95  99  99  99 102 102  95 101 100 108 118 118  39  46  49
103 108 112 140 143 148 143 144 147 144 145 147
255 255 255 255 255 255 255 255 255 255 255 255 255 255 255 255 255 255 255 255 255 255 255 255
255 255 255 242 247 255 198 208 223 148 139 161  99  71  80  95  53  49  95  39  37  97  38  37
100  38  36  98  40  37  96  42  31 104  57  38 113  72  53 126  98  78 140 124 116 126 123 127
115 123 133 110 121 137 106 120 134 104 119 132 102 118 130  99 114 126  95 110 121 101 115 126
108 121 130 106 117 125 103 113 123 124 124 137 144 136 143 145 130 132 145 124 118 126  95  80
107  67  53 100  52  39  92  37  28  97  38  33  99  37  34  96  37  35  92  37  33  98  54  47
113  79  82 124 105 119 113 109 116 102 102 102  99 103 103  96 102 102 112 120 122  48  52  56
101 102 106 139 142 146 141 146 148 140 144 145
255 255 255 255 255 255 255 255 255 255 255 255 255 255 255 255 255 255 255 255 255 255 255 255
255 255 255 230 240 255 136 157 177 100  86  99 105  56  62  94  39  38 101  39  38 101  39  38
102  40  33  96  42  29 109  63  50 121  85  72 132 105  95 147 136 128 125 130 128  82  97 100
 54  80  89  50  74  89  47  70  84  44  66  79  43  64  75  42  62  71  41  61  64  41  61  59
 80 100 100  45  62  62  61  75  79 123 130 139 137 137 141 144 144 144 138 138 135 143 132 125
128 105  98 113  79  72 105  59  50  92  39  27 100  39  32 100  39  37 100  38  34  90  38  33
101  58  56 124  96  97 124 110 110 109 105 103  97 102 102  97 103 104 110 117 118  56  58  60
 95  92  94 139 142 145 134 143 143 136 143 140
255 255 255 255 255 255 255 255 255 255 255 255 255 255 255 255 255 255 255 255 255 247 255 255
239 255 255 184 189 235 112 107 132  94  64  68  97  42  45  97  38  40 103  40  40  99  39  38
 98  41  29 109  64  41 121  88  73 134 113 106 149 139 137 136 135 138 128 136 138  75  86  88
 23  37  45  22  34  48  21  32  45  20  31  44  21  31  40  20  31  37  19  31  27  44  55  40
 69  79  68  51  58  51  34  38  37 113 114 119 141 139 140 143 143 141 139 142 141 142 140 140
145 138 137 130 109 107 114  79  69 105  59  40  97  40  29  98  38  35 100  37  34  94  37  33
 89  38  30 108  74  62 129 111 103 120 113 108  99 102 101  98 103 105 107 114 115  60  61  62
 86  82  83 139 140 142 135 141 138 138 144 136
255 255 255 255 255 255 255 255 255 255 255 255 255 255 255 255 255 255 255 255 255 239 255 255
188 221 237 137 138 169 108  77  92  89  43  43 102  41  41 101  38  38 104  39  36  99  40  34
110  57  47 122  86  71 133 113 103 149 142 137 134 140 139 125 134 137 124 136 140  67  74  79
 30  32  39  25  26  34  26  26  33  26  26  33  26  26  31  24  26  29  25  29  28  28  30  23
 73  74  68  51  49  44  55  50  50 103  99 105 128 124 129 141 142 146 134 141 144 136 143 144
133 141 141 148 140 140 133 109 103 118  79  67 107  53  44  97  38  32 101  37  32  98  37  33
 96  37  32  82  41  34 104  81  80 133 122 126 107 108 108  99 103 101 104 112 112  63  64  67
 81  76  79 139 138 142 138 141 143 138 143 143
255 255 255 255 255 255 255 255 255 255 255 255 255 255 255 255 255 255 255 255 255 241 253 255
163 187 196 121 111 127  93  48  54  95  42  39 101  40  38 101  40  38 102  40  33 101  50  38
112  73  64 136 112 105 148 139 134 142 141 138 135 141 141 128 136 139 125 136 142  75  81  90
 28  28  34  26  26  29  26  26  28  26  26  27  26  27  28  26  27  28  25  27  28  29  29  30
 71  70  69  67  66  62  63  62  64  86  90  98 109 119 128 122 130 141 134 141 148 136 142 145
138 143 145 144 141 143 151 139 137 135 109 103 108  67  59  98  46  36 101  38  31  98  36  32
 98  36  33  89  38  36  85  46  51 119  97 110 119 114 117 107 107 100 105 111 111  71  71  77
 78  71  77 139 138 144 138 142 149 139 144 153
255 255 255 255 255 255 255 255 255 255 255 255 255 255 255 255 255 255 255 255 255 244 251 255
134 149 164  93  71  80 104  45  47 101  41  37 102  41  38 102  42  39 103  43  32 103  60  40
130 104  93 151 139 136 138 139 137 138 141 140 134 140 140 131 139 140 126 137 141  84  89  97
 30  29  34  26  26  29  25  26  28  24  25  26  24  26  27  24  25  27  25  26  28  30  29  31
 70  67  69  87  87  90  46  49  52  42  55  58  52  76  80  99 114 119 132 139 142 139 144 146
140 143 146 141 142 146 139 139 140 153 139 138 128  99  92  99  54  42 102  40  33  99  35  32
101  35  34  97  36  36  97  41  38 105  72  67 122 111 107 106 103  99 103 107 108  80  78  85
 73  64  70 141 139 144 137 142 148 140 146 153
255 255 255 255 255 255 255 255 255 255 255 255 255 255 255 252 255 255 249 255 255 212 211 254
120 112 134  90  57  59 102  43  42 102  41  36 103  41  37 100  42  38 101  47  31 126  93  65
147 136 123 144 140 141 136 139 139 139 142 142 138 142 142 134 139 138 131 138 141  92  95 103
 31  31  36  26  26  29  27  27  29  25  26  28  26  28  30  26  27  30  26  26  29  29  27  31
 68  64  71  83  83  93  33  37  41  35  42  40  23  34  33  77  85  85 132 137 137 136 141 142
141 145 148 140 142 148 139 140 144 147 140 143 146 131 125 119  85  70  96  42  34  95  36  34
103  39  39  97  36  37  95  37  26 112  73  49 129 109  97 118 110 109 101 104 108  86  84  93
 66  58  65 137 136 141 136 142 147 137 143 148
255 255 255 255 255 255 255 255 255 255 255 255 255 255 255 249 255 255 238 250 255 180 171 202
119  88 104  88  43  43 102  42  41 103  41  37 104  40  36  98  42  37 116  67  57 149 126 111
136 139 133 138 142 144 138 143 144 141 144 144 138 140 139 137 140 138 133 137 139 100 102 109
 31  32  37  27  27  29  26  26  28  25  26  27  24  26  28  26  26  29  27  26  29  29  26  29
 63  58  63  79  79  87  37  42  41  28  30  20  43  42  31  64  65  53 134 138 132 134 139 139
138 144 145 140 144 146 140 142 144 141 141 143 139 137 136 140 116 112 106  60  57  91  37  35
100  38  36  98  37  36  98  37  31  85  40  28 116  86  82 132 118 121 103 105 110  92  90  97
 59  52  57 134 134 136 134 141 144 135 141 145
255 255 255 255 255 255 255 255 255 255 255 255 255 255 255 245 255 255 224 245 255 160 150 170
105  64  73  92  41  40 103  42  40 103  41  38 104  40  36  95  45  39 123  87  83 149 133 131
138 142 142 137 142 145 136 143 144 139 143 143 138 139 138 137 141 138 131 137 139 103 106 113
 34  34  38  27  27  29  27  27  28  26  26  27  25  25  27  25  25  28  26  26  29  29  26  29
 58  52  56  90  86  92  51  48  42  55  50  32  59  51  30  98  95  71 139 140 128 137 140 139
137 143 142 138 143 142 139 143 143 140 143 145 141 144 148 143 128 134 113  79  80  89  41  38
 98  37  34  98  37  33  97  37  35  81  38  38  90  64  68 127 115 123 105 106 113  97  94 100
 54  46  49 133 132 132 136 141 143 136 141 145
255 255 255 255 255 255 255 255 255 255 255 255 255 255 255 240 255 255 196 226 234 140 129 145
106  54  61  97  40  39 103  41  39 105  42  39 105  41  35  93  49  40 133 109 105 149 140 140
136 141 142 135 142 144 135 144 145 138 143 143 140 141 141 138 143 143 131 140 144 107 111 120
 35  34  40  28  28  31  26  26  28  26  26  27  26  25  27  25  25  28  26  26  29  31  27  29
 56  48  52 102  93  98  58  47  47  83  70  66 117 101  94 141 133 123 141 140 136 140 142 142
137 143 143 138 144 142 138 144 144 138 145 146 136 144 145 147 140 141 123 100  98  87  45  40
 98  37  33  97  37  34  97  37  35  78  37  36  97  75  77 124 113 118 108 108 113 103  99 104
 52  43  54 133 131 148 137 141 151 138 142 146
255 255 255 255 255 255 255 255 255 255 255 255 255 255 255 241 255 255 179 207 213 126 113 125
 99  44  49  97  39  37 102  40  37 105  42  38 106  42  34  99  60  48 146 132 127 146 142 143
135 141 142 136 143 145 138 146 146 139 145 144 141 144 145 136 141 144 136 143 150 112 115 126
 36  35  42  27  27  31  26  26  29  26  26  28  26  26  29  26  26  30  26  26  29  30  27  29
 51  44  47  91  86  91  49  47  54  65  61  70 136 130 136 138 135 139 141 141 144 142 144 146
138 143 143 141 145 142 140 144 143 140 145 145 137 144 142 144 141 137 135 122 117  93  56  49
 99  37  33  97  37  35  97  38  36  83  37  35  76  42  42 114  99 102 106 110 114  97  95 100
 49  41  60  92  91 125 136 142 161 133 141 146
255 255 255 255 255 255 255 255 255 255 255 255 255 255 255 242 255 255 163 190 195 112  97 108
 99  41  45  98  38  36 102  40  38 105  42  39 107  43  34 106  72  57 138 134 127 144 145 145
138 145 145 138 145 146 137 145 145 139 146 145 137 143 143 134 140 142 136 142 147 117 119 127
 38  37  43  26  26  29  26  26  29  26  26  28  26  26  29  27  27  30  26  26  29  30  27  29
 47  40  43  80  80  85  33  39  43  48  53  56 129 133 135 139 141 142 143 143 143 145 147 147
140 144 144 143 146 146 142 145 145 141 145 147 138 144 145 141 142 143 132 128 127 100  67  63
102  39  36  98  38  36  95  37  35  90  38  36  96  50  49 104  85  85 100 108 109  91  91  94
 48  41  51 116 116 132 131 139 147 127 140 141
255 255 255 255 255 255 255 255 255 255 255 255 255 255 255 244 255 255 151 173 178 105  88  99
 96  39  43  99  39  36 103  40  38 103  41  39 107  45  35 114  83  65 137 137 127 141 144 142
137 144 143 138 144 144 139 145 145 137 143 142 135 142 142 135 140 142 138 142 146 121 123 129
 38  39  43  26  26  29  27  27  30  26  26  29  26  26  29  26  26  29  26  26  29  29  26  29
 44  37  41  85  83  88  29  32  33  45  48  46 132 136 135 143 145 144 145 146 144 144 146 143
143 146 146 141 144 146 138 142 145 140 143 147 142 145 150 139 140 146 136 135 137 109  78  76
103  41  39  98  38  36  95  37  35  88  37  35  82  38  36  98  78  75 102 106 106  86  85  87
 47  41  41 110 110 109 130 137 135 125 138 135
255 255 255 255 255 255 255 255 255 255 255 255 255 255 255 247 255 255 151 168 173  99  79  89
 97  40  44 100  40  39 104  40  39 102  40  39 104  44  37 122  94  80 134 138 131 138 143 142
136 143 143 139 144 145 138 142 143 137 143 144 134 142 143 135 140 141 137 140 143 124 127 132
 40  43  47  25  27  30  26  27  30  24  25  28  25  26  29  25  25  28  27  26  29  30  26  29
 43  36  39  89  86  90  32  32  33  42  44  43 127 131 131 146 149 149 142 144 144 141 143 144
141 143 145 140 144 147 138 144 147 142 145 148 141 141 144 138 139 143 133 135 138 119  89  92
102  40  40  99  39  37  96  37  35  88  37  35  97  54  50  93  72  66 106 107 106  81  79  82
 48  42  42 104 104 102 130 136 134 124 137 135
255 255 255 255 255 255 255 255 255 255 255 255 255 255 255 248 255 255 148 163 167 101  80  89
 99  41  45  99  40  40 101  41  41 101  40  40 105  44  39 121  92  82 137 140 135 137 141 141
137 143 144 138 142 144 136 139 141 137 142 145 136 143 144 136 141 141 134 138 140 124 127 131
 45  48  52  26  27  31  27  27  30  25  25  28  26  26  29  25  25  29  27  26  29  29  26  29
 41  35  38  89  86  90  33  33  34  41  42  41 124 126 126 145 146 147 141 142 145 140 141 146
138 140 144 141 143 147 140 142 145 139 139 141 137 137 139 138 138 141 135 136 141 117  88  96
101  40  42  98  38  35  96  37  35  90  37  35  84  38  32  95  73  63 108 109 106  77  76  80
 47  43  43  98  98  95 132 136 134 132 138 136
255 255 255 255 255 255 255 255 255 255 255 255 255 255 255 248 255 255 155 169 173 104  81  89
101  41  45  98  40  40  97  40  40 100  40  40 106  43  39 123  93  85 137 139 136 136 139 141
136 141 143 140 143 145 138 140 142 138 142 145 136 142 143 136 142 142 133 139 140 124 128 131
 49  52  54  27  28  30  27  27  29  26  26  29  25  25  27  26  26  28  27  26  28  30  27  30
 40  35  38  89  87  90  34  34  35  41  41  40 121 121 121 144 144 145 142 142 144 142 143 146
138 141 144 143 143 145 142 140 142 144 143 144 139 138 139 137 137 137 134 135 138 121  92  99
100  40  41  98  38  35  97  37  34  92  37  35  89  39  32  94  70  57 114 115 110  95  94  96
 50  47  47  93  93  90 131 134 133 140 140 140
255 255 255 255 255 255 255 255 255 255 255 255 255 255 255 253 255 255 170 175 178 111  86  93
 98  42  46  96  38  39 101  41  41 101  40  39 104  43  40 113  83  77 139 139 138 138 140 144
137 140 143 139 140 143 139 139 142 140 142 145 137 142 143 137 142 142 136 141 142 124 129 131
 52  57  58  27  29  30  28  28  30  27  27  30  25  25  27  26  26  27  27  26  28  25  27  30
 29  35  37  83  86  88  35  35  35  39  39  38 117 117 117 144 144 146 142 142 144 142 143 145
141 143 144 141 141 142 140 139 140 143 143 144 137 139 139 140 140 138 137 135 137 118  88  94
100  41  42  97  38  34  96  37  34  93  37  34  94  41  32 107  81  65 120 121 114  98  98  99
 53  52  51  87  87  84 131 133 133 138 139 141
255 255 255 255 255 255 255 255 255 255 255 255 255 255 255 255 255 255 177 173 175 120  92  97
 96  43  44  95  37  35 102  38  37 102  40  39 102  42  39 104  74  68 135 134 134 141 141 146
137 139 142 141 141 142 143 141 143 141 142 144 136 141 142 138 143 143 136 141 142 125 131 133
 58  65  63  27  30  24  30  29  26  28  28  28  28  28  28  28  28  27  29  28  26  20  28  25
 39  57  54  78  86  83  39  38  36  38  37  36 114 113 113 145 145 147 142 142 144 144 144 147
142 143 145 143 143 144 142 142 143 141 143 144 137 142 142 143 143 143 137 131 134 109  77  83
 98  40  41  96  38  35  95  37  34  94  37  34  98  41  32 111  83  68 118 119 112 103 103 104
 57  57  57  81  81  80 133 134 134 136 139 141
255 255 255 255 255 255 255 255 255 255 255 255 255 255 255 253 255 255 203 208 210 131 108 112
 96  44  44  94  38  33  99  39  36  99  39  38 102  41  37  96  62  55 137 129 129 140 137 143
137 138 141 140 141 141 141 143 144 140 143 145 136 140 141 138 143 143 135 142 143 130 134 137
 72  74  69  51  48  34  44  34  26  40  33  31  37  33  31  39  35  32  43  38  32  38  40  31
 32  42  33  88  93  84  41  41  36  37  37  35 110 109 109 141 142 145 140 143 146 141 143 147
143 145 148 143 145 147 144 146 147 141 144 145 140 144 145 146 142 143 141 128 132 100  64  71
100  40  42  98  38  35  98  38  35  88  37  34  85  42  33 117  98  83 114 117 110 103 105 106
 60  62  62  70  73  73 131 135 136 136 139 141
255 255 255 255 255 255 255 255 255 255 255 255 255 255 255 248 255 255 216 231 229 143 125 121
105  54  51  94  40  37  97  40  38  97  38  37 103  41  38  88  50  45 124 109 110 141 134 142
137 138 141 138 141 141 136 142 143 140 144 148 137 140 143 137 143 145 134 143 145 135 138 141
104 102 100  77  67  59  87  68  62  83  70  67  78  70  69  79  70  71  84  74  74  81  78  77
 86  89  96  98 100 115  40  41  45  37  37  31 107 105 104 137 139 143 137 144 148 137 142 146
140 143 145 142 145 146 142 146 147 140 144 146 140 144 146 150 142 145 124 104 107  92  51  54
102  39  39 101  39  35 100  38  35  83  38  35 104  75  70 124 113 106 107 113 109 103 108 106
 66  70  69  60  66  66 126 134 134 136 140 140
255 255 255 255 255 255 255 255 255 255 255 255 255 255 255 252 255 255 248 255 249 175 159 147
104  64  58  91  42  41 100  41  40 100  39  37 104  41  38  92  46  42 119  90  93 144 129 139
140 139 143 141 142 141 136 140 142 137 141 147 137 141 146 137 143 147 137 145 149 136 139 143
131 130 130 105 103 100 113 110 106 101 101  96  91  93  93  90  90  95  90  88  94  84  87  94
 78  86 109  60  63 102  43  41  55  47  48  37  97 101  99 127 134 140 136 145 150 137 143 147
145 148 150 144 147 147 142 146 147 141 144 147 144 145 149 147 135 141 123  97 100  89  45  45
101  39  36 101  39  33 100  38  34  87  39  36  89  56  55 129 116 116 104 110 108 102 108 103
 72  78  75  53  60  59 125 133 131 138 141 138
255 255 255 255 255 255 255 255 255 255 255 255 255 255 255 255 255 255 255 255 255 195 180 180
122  92  89  89  44  38 101  40  36 102  40  37 104  40  37  95  42  39 111  68  71 148 125 134
140 136 140 143 143 143 137 140 142 137 141 145 137 142 145 137 143 146 137 144 147 137 140 144
141 140 142 135 140 140 105 117 114  53  65  59  47  59  55  45  54  53  46  52  52  41  50  52
 34  47  54  40  44  56  57  52  56  57  60  56  84  95  97 119 130 138 125 137 142 137 144 146
142 145 146 143 147 147 140 145 146 143 145 146 142 141 147 146 129 141 105  72  76  87  40  38
101  39  36 101  39  35 102  39  34  90  40  34 116  78  76 136 120 122 100 106 106 101 108 104
 76  85  83  47  55  55 125 133 133 140 142 142
255 255 255 255 255 255 255 255 255 255 255 255 255 255 255 255 255 255 255 255 255 222 214 225
136 120 120  97  58  46 102  40  32 103  40  36 104  40  37  98  41  38  97  46  49 124  92 101
148 134 139 145 140 141 138 141 142 139 142 144 139 143 145 138 143 145 137 143 146 136 141 146
138 143 146 134 142 144 112 124 121  58  60  52  57  50  42  58  51  43  60  53  48  42  42  39
 25  31  22  45  49  34  66  68  62  58  65  68  49  62  68  82  93 103 114 124 129 136 142 142
140 143 143 140 143 144 140 144 144 146 145 145 144 138 147 123  97 115  93  47  53  94  40  35
102  39  35 102  39  36 104  41  35  94  51  41 124 100  98 122 113 118  98 103 104 101 108 105
 83  92  91  43  51  51 125 133 135 135 139 143
255 255 255 255 255 255 255 255 255 255 255 255 255 255 255 255 255 255 255 255 255 250 249 255
151 148 147 105  72  62 107  44  37 104  41  37 105  41  37 103  41  38 103  43  42 102  60  61
130 106 110 148 138 146 138 141 146 141 144 146 140 143 143 141 145 145 138 143 145 133 141 145
131 143 145 133 145 145 116 128 127  62  55  53 107  81  80 131 108 108 113  93  93  70  60  60
 32  31  28  42  46  40  61  70  64  28  40  34  30  45  43  29  40  40  82  90  90 135 140 139
140 143 143 145 148 149 138 141 145 149 145 153 126 114 122 101  65  73 103  43  45 103  41  38
102  38  35 103  40  37 106  43  36  99  62  51 122 111 106 110 107 108 100 104 104 102 108 106
 88  97  96  40  48  48 122 130 132 131 136 141
255 255 255 255 255 255 255 255 255 255 255 255 255 255 255 255 255 255 255 255 255 252 252 255
176 177 175 131 107  99  98  48  42  99  43  38 104  41  37 104  42  38 103  41  36 100  51  44
114  78  82 136 115 131 147 141 150 144 142 144 142 144 144 141 144 141 140 144 144 136 142 146
135 142 142 135 143 140 123 133 133  65  64  67 125 112 118 136 125 134 143 133 139  86  81  84
 32  32  34  43  44  46  70  73  67  47  51  36  25  29  17  41  42  33  64  63  58 140 141 139
140 143 143 146 145 146 143 138 146 138 122 138 116  90  97  97  53  51 100  39  37 102  40  38
101  38  35  97  40  36  97  45  37 112  84  71 127 123 116 108 108 106 102 105 103 103 109 107
 94 103 102  39  46  46 122 128 131 134 138 144
255 255 255 255 255 255 255 255 255 255 255 255 255 255 255 255 255 255 255 255 255 252 255 255
200 206 204 158 142 136 117  79  71  96  46  35 103  41  34 106  43  39 105  40  36  99  42  37
109  60  60 125  93  96 133 117 125 148 141 153 141 142 149 141 143 144 139 143 145 141 144 147
140 143 144 136 141 140 127 135 133  69  73  71 101 101 103 142 142 149 131 130 139  99  99 110
 34  34  38  43  42  40  70  68  65  51  47  42  54  48  38  53  45  30 105  95  88 145 142 142
141 144 149 148 143 153 134 120 130 126  99 109 107  66  69  93  41  38 103  40  38 102  40  38
101  39  33  93  41  30 111  69  63 135 116 114 109 112 111 106 109 109 106 109 109 104 110 109
 97 107 107  38  45  45 116 120 121 138 140 142
255 255 255 255 255 255 255 255 255 255 255 255 255 255 255 255 255 255 255 255 255 255 255 255
237 235 233 198 187 183 132 111 100 107  69  51  97  42  31 103  43  39 105  40  37 103  42  39
 99  43  37 110  67  58 126  96 103 134 116 139 145 138 152 142 140 146 140 142 146 141 144 147
141 145 146 140 144 144 132 137 133 102 102  94  94  91  90 129 126 132 129 127 139 100  99 118
 36  36  42  46  43  37  70  64  64  65  59  64  74  68  60  94  88  67 132 127 117 146 140 141
153 146 156 137 120 140 130 103 115 109  71  76  92  43  43  96  41  37 101  40  37  97  39  36
 95  40  30 100  58  40 123  94  90 128 116 125 106 110 115 105 108 110 104 106 106 101 107 106
101 111 111  39  45  45 110 112 111 139 142 140
255 255 255 255 255 255 255 255 255 255 255 255 255 255 255 255 255 255 255 255 255 255 255 255
255 245 247 239 232 236 166 162 156 118  92  76 106  58  46 100  43  35 107  41  35 107  42  39
106  42  38  96  42  36 109  65  67 118  89  99 129 114 125 146 139 151 140 141 151 141 144 151
140 145 149 144 147 149 138 140 140 134 132 130 119 112 111 116 111 111 109 105 109 102 100 109
 64  64  63  50  45  33  69  58  49  80  71  65 108 101  97 135 131 130 135 134 139 147 138 149
133 115 128 127  98 112 110  70  77  92  43  43 100  42  41 100  41  38 100  40  36  93  39  33
105  57  48 107  75  63 122 106 102 122 117 121 102 107 109 105 108 108 103 105 105  99 105 105
102 113 113  41  46  47 107 107 106 142 145 142
255 255 255 255 255 255 255 255 255 255 255 255 255 255 255 255 255 255 255 255 255 255 255 255
255 255 255 251 243 255 210 199 198 162 139 124 110  75  61 106  58  45 102  41  33 105  43  39
105  41  38 101  42  39  97  43  41 106  62  60 114  81  89 129 106 125 145 131 146 141 135 147
138 139 147 138 141 145 139 144 147 138 138 141 137 133 132 132 130 124 128 127 124 111 110 109
 95  93  83  93  90  71 105 100  82 107 102  84 122 116 116 131 122 140 141 128 148 129 106 128
119  85 100 107  64  73  96  44  46  98  42  37 101  41  37  99  41  38  99  42  36  95  48  39
104  66  58 120  99  92 123 119 116 113 113 113 100 105 105 105 109 108 103 105 105  99 104 105
108 116 117  46  49  51 104 103 102 140 142 137
255 255 255 255 255 255 255 255 255 255 255 255 255 255 255 255 255 255 255 255 255 255 255 255
255 255 255 255 255 255 246 227 230 208 187 188 153 130 124 112  73  59 111  55  44 104  44  36
107  42  36 108  43  40 107  42  39 101  43  40 105  53  55 104  64  72 120  91 101 129 114 125
129 127 138 137 140 150 133 141 150 139 142 150 143 142 147 142 142 144 140 141 144 141 140 145
141 137 138 137 135 133 134 134 133 135 133 133 131 126 132 135 120 133 119  93 104 109  71  81
106  56  63  99  42  45 106  42  42 103  40  36 103  41  36  98  40  33 105  51  42  99  58  46
125  96  89 133 123 121 107 115 114 102 109 108 104 110 109 107 111 109 101 104 103  99 103 103
108 114 115  52  53  56  98  95  96 140 140 140
255 255 255 255 255 255 255 255 255 255 255 255 255 255 255 255 255 255 255 255 255 255 255 255
255 255 255 255 255 255 255 255 255 236 221 238 208 186 186 152 120 104 111  69  55 106  56  43
101  43  35 103  42  38 106  42  38 102  42  38  99  42  39  98  47  45  97  52  56 107  69  80
118  87 101 127 102 119 138 118 133 141 124 138 145 131 143 145 132 143 146 134 145 145 131 142
146 129 141 142 124 138 139 119 135 130 106 125 122  93 106 119  82  90  99  55  58  99  48  47
 98  41  40 101  40  38 104  40  37 100  40  36  98  41  34 100  50  39 103  60  47 120  93  77
137 126 120 120 118 121 106 112 112 103 108 106 105 110 107 107 110 106 102 104 102 102 105 105
109 113 115  57  57  61  90  87  91 139 139 143
255 255 255 255 255 255 255 255 255 255 255 255 255 255 255 255 255 255 255 255 255 255 255 255
255 255 255 255 255 255 255 255 255 255 255 255 232 211 209 191 167 155 145 117 105 112  73  61
112  61  50 103  46  35 107  44  37 105  43  40 105  43  41 105  43  41 105  43  44 105  44  48
110  50  55 111  57  63 115  67  74 116  78  87 114  86  96 120  94 104 118  93 103 121  93 103
118  87  98 117  82  93 111  71  81 108  61  71 106  52  57 102  44  45 105  42  42 104  40  38
105  40  38 105  40  38 105  40  35  99  41  32 106  54  44 103  61  49 124  91  83 136 123 118
112 118 116 108 113 113 105 110 110 103 107 108 103 107 106 108 110 106 108 109 107 107 108 107
110 112 113  63  62  66  85  81  84 139 139 141
255 255 255 255 255 255 255 255 255 255 255 255 255 255 255 255 255 255 255 255 255 255 255 255
255 255 255 255 255 255 255 255 255 255 255 255 255 255 251 218 210 201 179 166 156 144 119 108
122  85  71 110  64  46  97  43  33 100  42  40 105  42  40 104  41  38 103  40  38 104  41  39
105  42  39 103  44  39 102  46  46  97  47  52  93  48  55  94  49  59  96  51  61  96  49  59
 97  48  57  96  45  54  96  43  48  98  42  43 101  41  39 104  41  36 107  41  37 105  40  37
105  40  38 101  41  39  99  43  35 101  55  40 104  67  53 118  93  80 134 120 116 122 118 123
108 114 115 106 112 109 103 109 109 103 107 111 102 104 104 106 109 105 103 106 103 105 108 105
108 111 111  70  69  73  80  75  77 137 137 138
255 255 255 255 255 255 255 255 255 255 255 255 255 255 255 255 255 255 255 255 255 255 255 255
255 255 255 255 255 255 255 255 255 248 255 255 240 255 255 203 211 213 186 187 186 177 166 161
146 122 114 132  97  85 119  73  62 105  50  39 110  46  37 107  43  37 106  42  38 106  41  38
108  42  38 105  40  35 106  41  39 105  42  42 104  42  44 105  42  45 106  41  44 107  41  44
109  41  44 108  41  44 107  41  42 108  42  42 108  42  39 106  39  34 108  39  33 107  40  34
107  42  33 100  44  31 114  66  54 115  80  69 124 102  94 132 124 119 114 119 118 109 114 117
107 113 114 105 112 112 102 110 111 104 108 111 103 104 104 105 108 105 101 107 105 103 108 107
105 109 109  77  76  77  72  66  75 135 135 152
255 255 255 255 255 255 255 255 255 255 255 255 255 255 255 255 255 255 255 255 255 255 255 255
255 255 255 255 255 255 255 255 255 251 255 255 246 255 255 219 224 237 208 209 216 188 184 185
169 160 158 157 139 133 144 118 105 125  89  68 107  60  45 104  52  42 102  45  38 102  43  39
104  42  38 105  42  37 107  42  38 105  41  37 104  40  37 104  40  37 105  40  37 106  40  37
108  41  39 107  40  38 107  40  38 106  41  39 107  43  39 102  43  37  99  44  36 100  49  39
101  55  38 112  77  53 123  99  83 128 113 105 132 127 124 121 121 123 111 116 117 109 114 115
106 111 112 105 111 113 104 111 113 102 107 109 101 104 104 104 108 105 103 109 108 102 106 107
105 108 108  89  90  88  58  57  73  91  95 129
255 255 255 255 255 255 255 255 255 255 255 255 255 255 255 255 255 255 255 255 255 255 255 255
255 255 255 255 255 255 255 255 255 254 255 255 252 255 255 235 237 248 216 218 229 196 199 209
176 181 185 165 164 163 154 147 141 149 131 119 133 103  91 126  86  74 121  70  58 108  54  42
107  49  37 106  44  32 109  43  33 108  42  33 108  42  34 107  42  34 107  42  35 108  42  36
109  42  35 109  42  35 111  43  34 110  45  34 111  49  37 105  53  40 116  74  61 113  78  65
126  98  85 133 119 105 125 124 115 125 130 125 113 124 121 110 118 116 112 117 116 112 116 116
109 113 113 110 115 115 105 112 113 103 109 110 104 109 108 104 109 104 101 107 105 101 105 106
104 107 109 101 104 107  66  70  78  82  90 104
255 255 255 255 255 255 255 255 255 255 255 255 255 255 255 255 255 255 255 255 255 255 255 255
255 255 255 255 255 255 255 255 255 255 255 255 254 255 255 233 235 245 219 222 237 198 202 222
176 182 193 168 171 174 160 161 161 159 153 150 159 146 138 150 131 117 141 116  99 128  99  79
116  82  62 108  71  51 102  61  44 102  58  44 103  55  42 102  53  40 101  51  40 100  51  41
100  52  41 102  55  42 105  58  41 108  68  47 113  79  58 118  91  70 123 104  85 133 118 101
144 132 122 135 130 126 127 128 125 120 124 121 115 121 117 115 120 114 114 119 115 113 116 114
111 113 112 109 113 112 106 113 113 103 109 110 104 110 107 103 109 102  99 105 102  99 105 106
102 107 111 102 106 114  80  83  84  75  80  75
255 255 255 255 255 255 255 255 255 255 255 255 255 255 255 255 255 255 255 255 255 255 255 255
255 255 255 255 255 255 255 255 255 255 255 255 255 255 255 231 233 243 214 219 229 199 205 214
177 184 191 171 179 184 161 170 171 155 161 159 154 157 153 151 153 147 145 146 139 144 140 131
140 130 120 134 121 111 130 113 103 128 105  96 130 100  91 128  96  86 124  89  81 125  93  86
126  96  87 127  99  88 121  95  83 128 112  98 127 120 107 131 129 117 127 130 119 129 132 122
124 128 122 121 125 122 119 123 121 118 121 119 117 119 116 115 118 114 112 117 115 115 117 116
114 114 114 113 116 116 105 112 112 102 109 110 101 109 108 102 109 105 100 107 105  99 106 106
 99 107 109 103 108 113 101 104 106  97 100  99
255 255 255 255 255 255 255 255 255 255 255 255 255 255 255 255 255 255 255 255 255 255 255 255
255 255 255 255 255 255 255 255 255 255 255 255 255 255 255 242 244 255 219 224 229 201 205 204
183 187 190 175 178 185 166 169 172 162 166 165 156 162 162 153 158 160 150 154 155 151 151 152
153 149 149 149 144 143 145 139 136 145 136 131 146 134 128 145 131 124 143 128 122 142 128 123
143 129 122 144 131 122 145 133 125 140 134 127 135 135 130 134 135 132 132 135 132 127 130 127
123 126 124 121 124 122 120 123 122 120 123 122 118 121 119 112 116 113 109 115 114 112 116 116
112 115 115 110 114 115 106 111 112 102 108 109 103 110 110 101 107 106  99 105 104  99 105 103
 98 104 104  97 102 104  96 101 103  99 103 106
255 255 255 255 255 255 255 255 255 255 255 255 255 255 255 255 255 255 255 255 255 255 255 255
255 255 255 255 255 255 255 255 255 255 255 255 255 255 255 253 255 255 234 239 243 204 207 210
187 189 193 187 187 191 182 179 182 168 171 173 158 167 168 156 164 165 150 157 157 155 159 159
150 152 151 145 148 146 140 144 141 137 141 137 133 138 134 139 143 139 136 140 137 135 138 135
129 131 128 133 134 130 132 133 128 130 133 128 126 132 128 127 132 129 129 133 130 128 131 128
126 129 127 126 128 126 123 125 123 122 125 123 115 120 117 109 115 111 110 117 115 113 119 118
110 116 116 112 117 117 108 112 112 103 108 108 103 109 108 103 108 105 101 106 104 100 105 104
100 105 105  98 104 105  94 101 102  93  99 101
255 255 255 255 255 255 255 255 255 255 255 255 255 255 255 255 255 255 255 255 255 255 255 255
255 255 255 255 255 255 255 255 255 255 255 255 255 255 255 254 255 255 253 255 255 221 224 232
188 192 197 187 189 191 181 181 184 169 172 177 166 173 175 161 167 167 155 161 161 154 158 157
153 155 153 147 149 146 145 148 145 141 144 140 139 143 140 137 141 139 135 139 138 133 136 135
131 133 133 132 134 134 132 135 133 131 133 129 128 130 127 128 130 127 128 131 128 127 129 126
123 125 122 125 127 124 123 126 123 121 124 121 119 122 118 114 117 111 112 116 112 111 117 115
110 118 116 110 115 113 110 113 111 107 111 109 107 112 109 103 108 103 101 106 104 101 105 105
103 106 106 100 104 104  98 104 104  95 101 102
255 255 255 255 255 255 255 255 255 255 255 255 255 255 255 255 255 255 255 255 255 255 255 255
255 255 255 255 255 255 255 255 255 255 255 255 255 255 255 255 255 255 255 255 255 239 242 249
210 217 218 187 192 188 179 183 178 170 174 168 178 183 182 162 167 171 154 160 161 155 159 157
153 155 153 149 151 148 146 149 147 144 147 145 142 145 143 141 144 142 137 141 139 135 138 136
130 133 131 132 136 135 129 134 132 131 133 130 132 131 128 131 131 128 128 130 126 127 129 124
125 127 123 126 129 126 122 126 123 122 124 121 120 121 117 118 119 114 115 117 114 110 116 116
106 116 116 107 113 113 109 112 110 112 115 112 107 111 108 102 107 105 102 108 107 102 105 105
104 105 104 101 104 103  98 104 104  92  99 101
255 255 255 255 255 255 255 255 255 255 255 255 255 255 255 255 255 255 255 255 255 255 255 255
255 255 255 255 255 255 255 255 255 255 255 255 255 255 255 255 255 255 255 255 255 247 248 255
230 233 232 225 225 215 221 217 203 206 205 187 192 194 189 167 169 177 158 160 162 159 160 157
154 155 152 150 153 150 147 151 149 145 149 148 144 148 146 143 146 143 141 144 141 136 138 134
131 133 130 131 133 130 131 134 132 131 133 131 131 132 129 130 132 128 127 131 125 128 131 123
125 128 123 125 128 125 121 125 122 119 123 120 119 122 118 117 120 115 114 117 115 111 116 117
108 115 116 107 113 114 108 112 110 110 114 109 104 108 106 105 109 109 106 110 110 104 107 106
102 105 103 102 106 103 103 109 109  97 103 106
255 255 255 255 255 255 255 255 255 255 255 255 255 255 255 255 255 255 255 255 255 255 255 255
255 255 255 255 255 255 255 255 255 255 255 255 255 255 255 255 255 255 255 255 255 255 255 255
255 255 255 255 255 250 252 239 236 230 223 222 198 197 194 173 172 166 169 167 162 162 162 158
160 161 158 152 155 152 146 152 150 144 150 149 139 145 144 142 146 144 140 142 140 138 139 137
133 134 131 136 137 133 133 135 132 131 133 131 130 133 131 129 133 130 127 133 129 128 133 128
124 128 124 123 127 123 120 125 122 118 123 120 116 122 118 117 122 117 114 119 115 114 119 117
111 116 115 109 114 114 108 114 112 109 114 110 105 110 108 105 108 108 107 109 109 105 109 109
101 107 107 102 108 107 102 108 108 103 108 110
