P3
# 8-bit ppm RGB
39 39
255
 45  45  45  45  45  45  45  45  45  45  45  45  45  43  43  43  43  41  45  45  43  47  47  45
 45  45  43  43  43  41  45  45  45  43  45  45  43  47  47  50  52  50  48  48  48  47  47  47
 45  45  45  43  43  43  41  43  43  41  45  43  43  48  47  47  50  47  52  54  48  59  59  52
 59  56  50  56  54  50  54  54  52  52  54  52  54  59  56  66  66  61  61  56  52  48  47  45
 45  45  45  41  41  41  41  39  39  39  39  39  39  39  39  39  39  39  39  38  38
 48  48  47  48  48  47  50  50  48  48  48  45  47  45  41  45  45  41  47  47  43  45  45  41
 47  47  45  47  47  47  48  48  48  48  48  48  47  48  48  48  48  47  48  48  48  45  45  45
 45  45  45  45  45  43  41  43  41  45  47  45  45  48  47  52  56  52  57  61  57  75  75  70
 75  68  64  56  52  50  56  56  54  50  52  50  48  52  48  54  54  48  52  50  47  48  48  47
 47  47  47  45  45  45  47  45  45  39  39  39  39  39  39  39  39  39  39  38  39
 48  50  48  52  54  52  52  54  52  54  54  50  52  48  47  45  45  43  43  45  43  43  43  39
 45  45  43  45  45  45  45  45  45  45  45  45  45  45  45  47  47  45  47  47  47  43  43  43
 43  43  43  47  47  45  45  47  45  47  48  47  47  50  48  57  63  61  70  77  73  95  93  86
 82  72  66  56  50  47  52  52  50  50  50  48  48  50  48  52  52  50  50  50  48  48  48  47
 45  47  47  50  50  50  47  45  45  39  39  39  39  39  39  41  39  41  41  38  39
 57  59  57  57  59  56  57  59  56  48  48  45  48  47  45  43  43  43  41  43  41  43  43  39
 45  45  43  45  45  43  43  43  43  43  43  43  45  45  45  45  45  43  47  47  45  45  45  43
 43  43  41  45  45  43  43  45  43  47  48  47  48  52  52  48  52  52  47  52  48  63  63  54
 63  57  50  52  50  45  50  50  47  50  50  47  50  50  48  50  50  50  48  50  50  45  47  45
 47  48  47  45  45  43  41  41  41  39  39  41  39  39  41  39  38  41  39  38  41
 48  52  52  48  50  47  48  50  47  45  45  41  45  43  41  43  43  43  41  43  41  43  45  41
 45  47  45  47  48  47  43  45  45  45  45  45  47  45  45  41  41  39  41  41  41  43  43  43
 43  43  43  43  43  43  45  47  47  48  50  50  47  50  50  47  50  50  48  52  50  54  54  50
 54  52  48  52  52  48  48  48  45  48  48  45  47  47  45  45  47  45  43  47  45  45  47  45
 45  47  45  43  45  43  39  41  41  43  43  43  45  43  43  47  45  45  43  41  43
 50  54  54  48  50  47  47  47  43  45  45  41  45  45  43  43  43  43  43  43  41  47  47  43
 50  50  48  45  47  45  47  48  48  47  47  48  47  47  47  43  43  41  45  43  43  43  43  45
 41  43  45  41  43  45  43  43  43  47  47  47  50  50  50  48  48  47  48  48  48  48  48  48
 52  50  48  50  50  47  48  48  45  45  45  41  43  43  39  43  43  39  43  43  41  45  45  43
 47  47  45  43  43  39  39  39  38  41  41  41  47  45  45  45  43  41  45  43  45
 47  50  50  41  43  43  43  43  41  45  45  41  45  45  43  45  45  45  45  45  45  45  45  43
 43  43  43  41  43  43  41  45  45  47  48  48  45  47  45  45  45  43  47  43  39  45  45  38
 43  48  50  50  52  64  64  64  66  64  63  54  64  59  54  61  57  54  57  54  50  52  50  45
 52  50  45  52  52  48  47  47  45  43  43  43  43  41  41  43  41  39  47  43  41  47  45  43
 45  43  41  45  43  41  45  43  43  43  41  41  45  41  41  43  41  41  41  39  39
 48  48  50  48  48  50  52  52  52  48  48  45  47  47  45  45  45  45  47  47  47  47  47  45
 47  47  47  45  45  47  48  48  48  48  48  45  50  50  47  47  47  43  45  45  36  64  64  48
 52  52  56  82  75  98 114 100 102 107  93  75 102  88  77  93  80  75  86  73  64  77  66  54
 64  56  47  57  50  45  50  47  45  45  43  45  39  39  39  43  43  43  48  47  45  48  47  43
 47  43  41  48  45  45  50  48  48  45  43  41  41  39  39  41  39  41  41  39  39
 50  48  48  50  50  50  48  48  47  48  48  45  47  45  43  45  43  43  47  45  45  48  47  47
 47  45  45  47  45  45  48  47  43  47  47  38  48  48  47  50  52  56  59  63  57  88  86  70
 91  84  82 102  84  95 107  79  79 100  75  66 102  79  73 105  84  80 105  84  79 104  84  77
 86  68  64  66  54  54  57  48  47  48  45  39  43  43  39  43  43  43  45  45  43  56  52  48
 56  48  47  54  48  47  50  47  45  47  45  43  43  43  43  43  41  41  43  39  39
 47  47  45  48  48  47  48  48  45  47  47  41  45  43  41  48  47  48  54  52  54  50  50  54
 50  50  50  47  48  47  43  48  41  70  66  52  84  70  68  89  72  82  93  73  72  88  64  48
 72  45  38  77  45  45  82  45  45  79  43  43  77  43  43  79  45  43  80  47  45  89  61  59
100  77  79  98  77  82  96  77  73  75  63  48  54  47  39  47  45  43  43  45  41  48  48  43
 56  52  48  50  48  45  48  47  45  48  47  45  47  45  43  43  43  41  41  41  41
 45  45  43  47  47  45  47  45  43  48  47  43  45  43  41  48  47  47  47  45  45  45  45  47
 47  48  48  43  50  50  54  68  63  95  88  75 100  70  66  91  54  57  93  48  47  91  45  38
 93  45  41  93  45  45  93  45  45  91  45  45  91  45  45  91  45  41  91  45  41  82  45  41
 89  59  59  86  56  56  98  68  68 104  82  84  77  63  61  50  45  38  43  47  43  43  45  43
 48  48  47  48  48  45  50  48  45  56  54  50  54  50  50  47  47  48  45  50  50
 45  45  43  43  43  41  43  41  39  45  45  43  41  41  39  41  41  39  41  41  41  41  45  45
 41  48  50  68  68  72  96  91  88  91  70  57  86  50  43  86  47  43  86  45  43  82  45  45
 79  47  47  79  50  50  82  56  56  84  57  59  88  61  59  84  54  48  80  48  43  77  45  39
 77  43  39  79  45  41  84  48  56  91  63  80 100  77  79  75  61  48  54  48  43  47  45  45
 48  48  47  48  48  45  50  50  45  52  52  45  54  54  54  47  48  56  57  61  63
 45  45  45  41  41  41  43  41  41  43  43  43  41  43  43  43  45  45  43  45  43  39  47  45
 50  64  63  93  88  86 100  73  68  84  50  41  89  47  39  86  45  39  93  54  56  93  64  75
109  91  95 130 120 120 129 123 123 136 129 127 134 125 121 137 123 116 121 102  96 109  80  77
100  63  54  84  45  31  86  45  41  82  47  54  93  61  63 100  77  77  77  61  59  54  47  43
 47  48  45  50  50  48  50  50  47  50  50  45  48  50  48  48  50  52  52  56  56
 47  47  47  45  45  45  43  43  43  43  43  43  41  43  43  43  45  45  48  50  48  61  64  59
 73  80  75  88  73  66  91  56  50  84  48  43  84  47  39 100  72  63 109  88  93 125 111 132
143 134 143 139 136 134 139 139 136 139 137 132 141 137 130 143 136 127 146 136 130 136 120 118
127 104  91 105  75  50  82  47  32  82  47  43  84  47  50  91  63  73  93  72  72  68  56  47
 52  48  43  50  48  47  50  50  48  52  52  48  52  54  50  50  52  48  48  50  47
 47  47  47  47  47  47  43  45  45  41  43  43  41  43  43  43  45  45  45  48  50  59  61  68
 80  80  80  80  59  52  95  50  47  84  47  45  96  64  61 116  98  91 121 118 121 139 137 154
136 136 141 132 134 130 129 134 134 130 134 139 132 134 134 134 134 129 134 132 129 137 132 132
134 123 120 136 114 107 113  80  72  84  47  34  89  47  43  84  50  56  93  66  66  84  66  61
 66  56  52  57  52  48  52  52  48  52  52  48  52  54  50  57  57  54  54  54  50
 47  47  47  43  43  43  43  43  43  41  41  43  43  43  43  41  45  43  41  48  57  77  73  93
 96  80  86  82  52  43  91  47  43  88  54  56 109  84  82  98  89  84  88  95  98 118 118 130
125 120 123  91  91  86  93  98 104 104 111 129 127 136 143 127 130 127 129 127 125 125 127 127
120 127 132 125 120 130 129 111 105 102  72  50  88  47  36  84  47  47  93  61  61  95  70  68
 79  63  59  59  52  47  56  56  50  52  52  47  50  52  47  54  54  48  57  57  54
 45  45  45  41  41  41  41  39  39  39  39  39  43  43  43  39  45  45  47  57  59  98  88  91
100  66  66  84  45  39  96  52  48  91  61  57  95  77  73  48  48  45  56  73  75  95  98 109
 84  73  80  50  48  54  57  64  70  70  80  86  96 113 111  79  86  75  73  72  66  47  57  57
 66  91  96 118 127 137 125 120 116 120  96  79 102  61  50  84  45  43  91  52  52 104  73  75
 89  66  64  64  54  47  50  52  47  47  48  45  48  50  47  50  52  48  52  54  50
 43  43  41  43  43  41  45  45  45  43  43  43  45  45  47  41  47  50  54  68  64  96  84  73
 95  54  48  86  47  45  89  52  47 113  86  75  89  72  64  70  66  63  61  72  73  79  77  86
100  84  96  96  88 105  88  86  91  88  88  80  89  89  77  77  79  61  63  68  59  59  64  63
 57  63  68 109 113 125 127 130 129 129 113  96 111  75  64  86  48  43  86  45  45  98  66  72
 95  72  70  68  56  45  52  48  43  48  47  45  47  47  45  48  50  48  50  54  50
 45  47  45  50  52  50  48  50  48  48  48  47  45  43  45  43  50  56  57  75  72  95  80  68
 98  50  43  88  48  48  95  64  64 137 113 113 121 102  98  93  86  77  70  73  73 127 118 127
129 107 111 145 129 127 107  96  98  80  66  73  80  63  64  63  61  59  72  84  79  98  98  88
 77  63  64 100 100 114 118 130 132 139 130 121 121  91  82  89  54  45  88  45  45  91  59  66
 96  73  72  73  57  45  61  50  43  54  48  45  52  50  50  48  50  50  48  54  54
 47  50  48  48  50  47  50  52  48  47  47  43  43  41  43  50  52  61  77  84  80  86  66  50
 96  48  41  84  48  48 104  79  84 141 123 134 145 132 130  89  84  68  75  77  73 123 118 127
145 132 127 114 107  86  64  63  63  96  88 109 116  98 116  63  63  77  84 102  98  95  96  75
 79  64  63 104 104 121 120 132 139 136 130 127 132 109 100  93  59  45  89  45  43  86  54  64
 96  75  73  79  63  48  64  54  45  59  54  48  56  56  56  50  52  56  50  56  56
 43  48  47  47  50  48  45  48  48  47  47  47  47  45  48  57  56  63  66  63  59  95  70  52
 96  48  41  84  50  54 102  82  86 146 134 139 137 132 127  86  84  68  75  75  73 121 120 130
127 123 120  84  86  68  68  75  72 114 109 120 116  98 111  61  64  79  77 102 100  91  95  73
 80  64  63 109 107 123 118 130 136 134 132 130 129 111 102  98  66  50  93  45  38  82  48  50
 95  75  72  82  68  57  63  52  45  64  61  56  52  54  52  47  50  50  47  54  52
 43  45  45  43  45  43  43  45  45  45  45  48  48  48  54  50  54  61  77  84  79  91  72  52
 96  48  43  80  47  54 107  88  91 143 132 132 136 132 123  82  82  64  73  75  73 121 118 130
127 116 116  72  73  59  72  88  80 121 120 120 118  98 105  61  63  79  77 104 102  88  93  72
 79  64  61 105 105 120 120 130 136 132 130 129 130 114 104  96  66  47  93  47  34  93  61  54
 95  75  68  75  63  56  57  50  45  56  52  47  50  50  47  48  50  47  48  52  48
 45  45  45  45  45  45  45  45  45  45  45  47  48  48  52  43  52  57  59  79  75  88  73  61
 96  48  45  79  45  50 100  79  84 143 132 137 134 132 127  82  82  66  73  77  70 125 118 118
109  91  91  59  63  59  82 109 107 129 130 129 120  96  96  59  61  61  77 105  95  86  93  72
 77  64  63 105 105 120 118 129 134 130 129 127 127 113 104  96  68  50  89  45  36  80  48  48
 96  75  70  73  61  50  52  48  41  50  48  43  48  47  43  48  48  47  47  48  47
 47  47  47  47  47  47  48  48  48  47  47  47  48  48  50  43  50  54  57  73  73  75  61  56
 95  50  50  80  43  47 100  70  77 137 121 132 136 134 132  79  80  64  75  80  68  96 100  89
 64  66  64  91  98 105 118 130 130 129 125 120 114  95  84 102 100  84  91 107  89  88  89  68
 77  66  64 107 107 123 118 129 136 136 130 129 136 113 104  95  61  45  89  45  39  82  50  56
 96  75  72  73  61  47  52  48  38  48  47  39  45  45  41  45  45  45  45  47  47
 48  50  50  48  50  48  48  50  48  48  48  47  47  47  47  41  48  50  50  64  64  93  79  75
 96  54  54  84  43  43  98  59  66 130 111 127 129 127 123  79  80  56  72  79  63  70  84  75
 70  91  89  89 100 104 109 109 113 129 120 123 113  95  89  70  64  47  80  86  68  89  88  70
 75  66  63 109 109 120 118 129 130 143 132 127 129  96  88  95  56  43  89  43  39  88  54  59
 96  75  73  75  63  52  56  50  41  47  45  39  47  47  43  50  50  48  48  50  50
 50  54  50  52  54  48  52  54  50  48  48  45  47  47  47  41  47  48  47  56  56  86  75  73
 91  59  57  82  45  43  89  48  57 109  86 107 127 120 114 100  98  64  77  79  59  57  63  56
 39  48  45  47  52  52  52  56  63  77  75  89 104  95  93  84  80  61  64  66  48  63  66  50
 63  68  63 114 118 123 127 130 129 134 120 109 114  82  72  88  50  39  86  43  41  95  61  68
100  75  75  70  57  48  54  52  45  52  50  45  50  50  45  52  52  47  52  54  54
 41  48  47  48  52  48  48  50  48  47  48  48  45  47  47  43  47  47  47  52  54  82  73  79
 93  70  70  82  48  41  91  47  47  89  61  72 109  96  96 114 107  98 107 104  96 104 100  93
 96  93  89  86  88  86  84  91  93  91  95 100 113 113 109  91  91  79  79  77  66  56  64  54
 77  96  93 120 127 130 129 125 118 127 109  91 104  70  57  80  45  38  86  47  45 102  68  70
 95  66  64  66  52  45  50  50  45  52  52  47  50  48  43  47  47  41  48  50  50
 43  47  45  45  47  45  47  47  47  47  47  48  48  50  50  45  47  47  45  48  54  63  61  73
 89  82  82  84  59  45  88  45  38  84  52  52  98  75  82 118 104 120 139 134 137 136 134 125
136 136 130 134 136 132 130 136 134 130 134 132 132 132 129 130 130 123 130 129 123 127 129 123
121 129 127 130 125 127 137 120 107 105  79  52  84  47  32  80  45  41  84  52  50  96  72  70
 75  57  54  61  50  45  50  48  43  47  47  41  45  45  39  48  48  43  48  48  47
 48  50  48  52  52  50  48  47  47  47  47  47  47  48  48  45  47  47  47  48  52  43  48  56
 57  66  70  86  70  70  95  54  52  82  45  41  93  59  59 100  80  84 113 105 111 132 130 137
130 132 134 132 136 136 130 136 134 132 136 134 132 134 130 134 134 129 134 132 129 134 130 127
132 127 120 143 125 113 118  86  72  86  48  32  88  45  38  80  47  47  93  66  63  95  77  70
 72  63  57  56  48  43  52  47  43  48  47  45  47  48  45  52  52  47  50  50  47
 50  52  50  48  48  47  45  45  45  47  47  47  50  50  50  50  50  50  50  50  50  41  45  47
 45  52  59  70  61  75  89  63  66  84  52  45  82  45  38  91  61  52  96  72  79 116 100 123
137 130 143 136 132 134 136 134 134 136 134 130 136 134 130 143 134 129 148 134 130 141 125 123
134 116 102 107  80  54  84  47  31  82  47  41  77  43  43  93  64  70 105  80  77  77  63  48
 52  47  38  52  48  43  48  47  45  52  50  50  56  54  52  50  50  45  50  50  45
 47  48  48  47  48  47  47  48  47  48  48  47  48  48  48  54  52  52  50  47  47  41  43  43
 41  48  50  63  59  63  75  61  64  84  57  63  91  50  48  86  43  34  93  48  48  84  54  64
100  84  89 121 109 109 125 116 114 132 125 123 129 121 118 137 120 116 123  95  91 111  82  79
 95  64  56  82  47  32  88  45  38  79  45  43  91  64  61 107  82  79  91  68  63  68  56  48
 52  50  45  52  52  48  48  50  48  56  54  52  56  50  48  48  47  43  48  50  48
 56  57  57  52  54  52  48  50  48  48  48  45  47  47  45  45  45  43  47  45  43  47  47  45
 43  45  41  52  52  45  63  61  66  70  57  75  89  64  68  86  54  43  86  45  39  79  45  45
 75  47  45  77  50  47  79  54  52  82  56  54  84  57  56  84  52  48  86  48  45  84  47  41
 80  45  41  77  43  41  75  43  43  95  66  66 113  86  79  86  68  54  64  54  47  57  52  50
 56  56  54  56  56  54  54  56  52  52  52  47  50  48  45  47  47  45  50  50  50
 56  59  57  59  61  56  52  54  50  47  47  45  50  48  47  52  52  50  52  52  50  52  52  50
 52  50  47  45  48  43  45  54  54  57  57  64  73  64  68  95  72  72  96  59  57  86  47  41
 89  47  41  88  45  39  88  45  41  89  45  43  91  43  41  91  43  41  89  41  34  86  41  29
 86  43  41  79  47  52  89  68  68 114  91  82  96  70  61  66  54  43  50  50  45  48  48  47
 48  48  47  48  50  47  52  56  52  48  50  47  47  48  47  47  47  47  47  47  47
 56  61  57  54  57  48  54  56  50  56  56  54  56  56  54  57  57  56  61  59  57  48  47  45
 45  43  41  47  47  43  43  47  43  50  50  47  56  52  56  77  68  79 100  84  84  91  68  56
 84  54  45  84  50  43  86  47  41  86  47  43  86  47  45  80  45  43  75  43  32 104  66  47
102  59  57  98  73  88  95  88  86  80  72  54  68  56  43  59  54  47  50  50  47  56  54  52
 63  59  56  59  57  50  56  56  50  52  52  48  48  48  47  45  45  45  47  47  45
 50  57  56  50  56  52  54  57  56  61  63  63  61  61  61  61  59  57  54  50  48  45  43  39
 45  43  41  47  45  43  45  43  41  43  43  41  43  43  45  41  43  48  50  56  56  77  70  64
 84  64  61 116  89  86 105  70  68 107  75  75 105  75  73 100  77  73 102  84  68 121  91  63
100  57  45  79  61  64  63  70  66  48  52  39  54  54  45  56  56  48  54  54  48  63  59  56
 63  56  52  57  52  47  54  48  45  48  45  43  47  45  45  45  45  45  45  47  45
 52  56  54  54  56  56  56  56  56  54  54  54  54  54  54  54  54  52  52  52  48  50  48  43
 50  47  43  47  45  43  43  43  43  41  41  41  41  41  41  41  43  45  39  45  47  59  47  48
 80  50  50  93  59  57 109  70  70 109  73  75 111  79  77 102  70  63  96  63  39 121  89  50
 86  56  32  68  54  47  50  52  45  56  56  48  63  59  52  61  59  50  57  56  48  56  54  48
 56  52  48  50  47  43  47  43  41  45  43  43  45  43  43  45  45  45  47  47  45
 50  52  50  54  54  52  54  52  50  52  52  52  50  50  48  48  50  48  48  52  50  54  54  52
 50  45  45  47  45  45  43  45  43  43  43  39  47  45  47  47  48  57  63  68  68 105  88  82
 95  52  48 127  84  80 102  59  57 104  66  66  96  63  61 120  77  73 107  56  41 121  88  63
 89  72  61  66  56  57  57  54  48  59  54  41  64  57  47  75  70  59  64  59  50  52  50  43
 50  50  43  54  52  47  50  47  45  48  47  47  45  43  43  47  45  45  48  45  43
 54  56  54  52  52  47  52  52  48  50  50  48  50  50  48  50  50  47  52  52  50  47  47  47
 47  43  43  45  47  48  43  52  48  70  68  59  89  73  77  93  77  93  98  80  80  98  68  54
 96  54  45  96  52  47  96  50  47  91  48  47  88  48  47  93  48  47 102  50  43 107  68  56
100  73  73  93  72  82  89  72  68  80  66  48  63  52  36  72  64  50  66  61  48  57  56  45
 52  52  43  54  52  43  56  50  47  48  47  47  45  45  45  43  43  45  48  47  47
 45  47  45  45  47  43  45  47  45  45  47  47  47  48  47  50  50  48  50  48  48  50  48  48
 48  47  48  41  48  52  52  70  68  98  93  82 100  70  68  96  61  66  96  56  56  91  50  43
 93  50  45  96  50  47  98  48  47  96  48  48  95  48  48  96  48  47 100  48  45  91  48  41
 96  61  61  88  54  57 100  66  66 104  79  75  84  68  59  70  59  45  59  54  43  52  50  43
 54  54  47  63  59  52  56  48  45  48  45  45  45  45  45  43  43  45  43  43  43
