P3
# 8-bit ppm RGB
45 39
255
 72  77 101  72  77 105  72  77 105  72  77 109  66  77 101  82  82  96  77  72  96  87  82 113
 82  72 101  72  66  92  72  72  96  82  82 105  72  77 101  77  77 101  77  72  96  77  72  96
 82  72  96  82  72  96  87  72  96  59  66  96  72  96 150 117  92 177 183 121 117 255 255 196
211 253 186 183 205 147 121 121  77  96  96  82  92  92  87  87  92  96  82  92  82  96  96  72
 92  82  82  77  72  96  72  72  92  72  72  92  82  82 101  82  82  96  59  66  87  59  66  92
 59  66  92  59  59  87  59  52  82  66  59  92  66  59  87
 72  77  96  72  77 109  72  77 109  72  77 109  77  82 105  82  82  96  77  72  96  72  72 105
 72  72 105  72  72 105  72  72 105  77  77 109  82  82 109  87  87 113  96  92 117  87  82 109
 82  77 105  82  77 105  92  82 109  52  72 105  72 113 196 205 189 255 211 150 147 255 255 121
164 193  87 132 157 105 117 132 101  92 109  96  52  82  77  96  96 101 129 113  92 170 160 117
113 105  92  72  72  96  72  72  92  77  77  96  82  82  96  72  72  87  66  66  87  59  59  92
 66  66  92  59  59  87  66  59  96  59  52 101  59  52  87
 87  92 109  87  92 113  72  77 101  72  72  96  77  77  96  82  82 101  77  72  96  72  72 105
 72  77 105  82  82 109  72  72  96  66  66  92  77  77 101 101  96 113 105  96 113 105 101 117
 92  92 109  87  87 109  87  82 105  44  82 105 140 186 229 255 255 255 238 174 164 255 253 157
132 150  72  72 105  66 101 136 101 132 164 125  96 136 113 105 105 101 196 164 147 232 214 183
160 154 143  77  77  96  59  66  87  72  72  87  72  72  92  72  72  96  66  66  87  59  59  82
 59  59  82  59  59  87  66  59  92  59  52  92  66  52  82
 77  87 105  77  82 101  77  82 101  82  82 101  82  82 101  72  72  96  77  72 101  72  72 109
 82  82 109  77  77 101  77  77  96  77  77  96  77  77  92  82  82  96  87  87 101  92  92 105
 92  92 105  82  82 101  87  82  96   0  87 101   0 109 129  59 157 180 132 199 183 143 180 121
 96 105  59  92 105  96  87 109  52 202 202 136 170 154 113 132 121 109 136 129 105 154 150 117
113 113 105  72  72  92  59  59  77  72  72  87  66  66  92  66  66 101  72  72  96  66  66  82
 59  59  82  66  66  92  66  66  92  66  66  96  77  72  96
 77  92 109  87  96 117  82  87 105  82  82 101  82  77 101  72  66  92  72  66  96  77  72 105
 77  72 101  72  72  96  72  77  96  77  77  96  77  77  96  77  77  96  77  82 101  87  92 109
 82  87 101  82  82  96  92  82  96   0  96 113 255 255 255 255 255 255 241 255 255   0  96   0
101  96  52 105 105 105 113 121  92 255 238 196 255 220 196 160 136 129  77 105  96  44  72  59
 59  72  77  72  72 101  72  66  92  77  72  92  72  66  87  59  59  87  59  66  87  66  72  92
 52  59  77  66  72  87  87  92 105  92  92 105  77  77  92
 87  92 113  82  87 113  82  87 109  87  87 109  87  87 109  72  72 101  77  72 101  72  72 101
 72  72  96  77  77 101  82  82 105  72  77 101  72  77 101  72  77 105  82  87 113  87  92 117
 96  96 113  87  87  96  82  82  96   0  96 117 255 255 255 255 255 255   0 136 150  77 164 109
 59  87  44  92 105 109 132 136 121 208 193 164 255 255 255 129 109 105  72  82  87  66  72  92
 59  59  92  59  59 101  72  66  96  66  66  92  72  72  92  72  72  92  66  72  92  66  66  92
 59  59  77 101  96 101 132 129 132 125 121 125 143 136 143
 92  92 113  92  96 117  77  87 109  72  77 101  77  77 101  72  72 101  77  72  96  72  72  96
 77  77 101  82  82 105  82  82 101  77  82 101  66  82 105  66  77 101  72  82 105  87  92 113
 92  92 109  92  92 105  77  82  96   0  96 109 174 255 255   0 121 164 109 174 186 177 220 208
129 167 167  87 109 125 125 125 129 150 143 140 129 113 113  92  82  92  82  77  87  77  72  87
 77  66  87  66  59  87  72  66  87  66  66  87  59  59  87  52  59  92  52  66  92  59  59  87
 72  59  77 129 117 121 136 121 121 140 125 125 121 105 105
 82  82 105  87  92 113  77  87 109  77  82 105  77  77 101  72  72 101  87  87 109  77  77  96
 82  82 101  82  82 105  87  87 105  82  87 105  77  87 105  77  87 109  77  87 105  87  87 105
 87  87 105  87  87 105  87  87 101  44  82  92   0  82  87  44  96 101  87 113 129  87 101 129
 92  92 121  92  87 117 101  87 113  92  77 105  82  66  92  82  72  96  77  72  92  77  72  87
 82  77  92  77  72  87  77  72  87  72  66  82  66  66  92  59  59 101  59  66  96  66  72  96
 52  66  82 105 105 113 113 109 109 109 105 101 109 105 101
 82  82 109  82  87 109  77  87 109  82  87 109  77  77 101  66  66  92  72  77 101  77  77  96
 77  77 101  82  82 105  82  77 101  77  77  96  72  82 101  77  87 109  82  92 109 101 101 113
 92  87 101  87  82 101  87  77  92  82  77  92  82  77  96  96  82 105 129 105 125 121  87 109
125  82 101 132 101 113 109  82  96  87  66  82  82  72  87  82  77  96  77  72  92  77  72  92
 77  72  92  77  72  92  77  66  87  72  66  92  72  66  96  66  66 101  66  66  92  66  82 101
 72 101 109 105 121 125 101 109 113  87  96 101 101 109 109
 87  87 117  87  87 113  87  92 113  82  82 105  77  77 101  77  77 101  87  87 109  77  77 101
 72  72  96  77  77 105  72  72  96  77  77 101  72  77 101  72  77 101  77  82 101  96  96 109
 87  87 101  77  77  96  77  72  92  72  72  96  82  82 113 113 101 140 125  96 121 117  77  92
121  72  77 132  96  92 143 117 117 117 101 105  87  87  96  82  77  92  82  77  96  77  72  96
 72  72  96  72  66  92  77  72 101  72  66 101  77  72 101  66  66  96  66  72  96  72  77  96
 77  87  96  92  96  96 105 109 113  87  96 109  87 101 109
 77  82 109  82  82 109  82  82 105  82  82 105  82  77  96  77  77  96  77  77  96  82  82 101
 77  72  96  77  77 105  72  77 101  82  82 101  77  77  96  72  72  92  82  82 101  87  92 113
 72  82 105  72  77 101  72  72  96  66  72  96  87  96 117 132 121 143 121  82 101 117  72  82
125  72  77 121  77  82 132  96 109 125 109 132  92  96 117  82  82  96  87  77  92  82  77  96
 66  66  92  66  66 101  66  59  96  66  59  96  72  66  92  72  72  87  82  92 101 125 125 129
129 121 121 117 117 117 117 121 121  87  96 101  92 109 113
 92  87 113  77  77 105  92  96 117  87  87 109  82  82 101  87  82 101  96  87 101  87  82  96
 82  77  96  77  77 105  82  82 105  82  82 101  87  87 101  77  77  92  87  82 105  87  87 117
 72  72 101  72  72 101  77  77 101  92  87 109 132 121 132 121  96 105 117  72  82 113  72  82
109  72  82 113  77  92 117  77 109 117  96 143 113 109 140  92  87 105  87  82  96  77  77  92
 66  66  96  66  66 109  72  66 105  66  66 101  72  72  87  96  96  96 105 109 105 132 132 125
109 109 105 113 113 109 136 132 132 113 113 113 109 109 113
 96  77 105  77  77 101  72  87 109  77  87 105  77  82 101  82  77 101 101  82 101  96  82  96
 82  72  92  82  77 105  77  77 101  77  77 101  77  82 101  92  87 105  96  82 105  92  82 109
 77  72 101  72  72 101  77  77 105 121 105 129 129  96 113 117  72  82 129  77  92 125  92 109
136 117 125 113  82  87 117  77  92 113  87 113 125 109 125 101  92 105  87  82  92  77  77  87
 66  66  87  77  72 101  82  72  96  77  77 101  77  82  87 121 121 113 121 121 117 143 143 140
105 109 105 113 109 109 136 125 125 132 121 117 121 109 109
 87  77 105  77  77 101  72  82 101  77  82 101  77  82 105  82  82 109  92  87 105  87  82  96
 77  72  96  77  77 109  82  82 109  82  82 109  82  82 105  82  82 105  87  82 105  82  77 105
 77  77 105  82  77 105  87  82 109 121 105 132 113  82 101 105  72  82 113  77  96 143 125 147
160 154 160 132 113 109 109  66  66 121  92  96 136 113 117 117 105 113  87  87  96  82  77  87
 77  72  87  77  72  92  77  72  87  82  82  96  96  96  96 132 136 121 109 117 109 117 121 117
109 109 109 125 125 125 143 140 136 136 132 125 129 125 117
 77  72  96  77  77 101  72  77 101  72  77 101  77  82 105  87  92 113  82  87 105  82  82 101
 87  82 101  82  82 101  77  82 101  92  92 113  87  87 109  82  82 105  82  82 105  82  82 105
 82  82 101  92  87 105 109  96 109 129 109 117 121  92  96  96  72  77 132 117 129 160 154 170
157 157 167 154 140 143 129  92 101 109  66  77 129  92 109 136 121 140 101 101 113  82  77  87
 87  72  82  72  66  82  77  77  87  92  92  96 117 117 113 143 150 132 105 125 113  87  96  87
113 113 109 117 117 117 113 117 113  96 101  96  87  92  87
 72  72  96  77  77 105  87  87 113  82  82 113  72  77 101  82  82 101  77  77  96  77  77 101
 92  92 105  82  87  96  77  87 101  82  87 105  87  92 109  77  82 105  82  87 105  77  82 101
 82  87 101 109 105 117 132 117 117 121  96  87 113  77  72 117  96  96 164 154 160 164 160 177
160 160 174 160 150 164 136 113 129 113  77  96 117  72 101 117  92 129 121 113 132 121 117 125
121 121 129  96  96 109  82  82  87 109 109 109 136 136 125 143 147 125 109 117 101 113 121 109
121 129 121 117 121 117  92  96  92  87  92  87  82  87  87
 72  72 101  77  77 105  82  82 109  87  87 113  72  77 101  77  77  96  82  82 101  77  77 101
 82  87 105  82  92 105  66  87 105  66  82 105  82  92 113  72  82 105  77  87 105  72  82 101
 92 101 113 125 121 132 121 101 105 117  87  87 129  87 101 143 121 143 157 150 167 167 167 180
160 164 177 164 160 174 147 132 143 121  87 101 125  72  92 109  72 101 121 101 113 132 129 129
113 125 129 113 121 129  96 101 109 121 125 132 136 140 136 147 147 129 143 143 136 132 140 143
117 132 140 117 129 143 101 109 117  87  92  96 101 105 113
 82  82 113  77  77 105  77  77 101  82  82 105  77  77  96  77  77  96  92  92 113  82  82 109
 77  82 105  82  82 105  92  92 113  82  82 109  87  92 113  72  77 101  82  87 109  92  92 113
109 105 121 125 109 121 121  87  96 117  87  96 125  96 125 140 129 170 160 160 186 160 164 177
164 167 180 160 160 177 164 160 170 140 121 129 109  72  82 101  72  87 121 101 105 132 125 121
 87  92  92 109 109 117 117 117 129 113 113 129 154 154 154 125 132 113 105 117 117  96 105 125
 87  96 125 101 105 140 117 117 140  96  92 105 132 125 140
 82  77 101  82  82 101  77  82 101  77  77  96  82  77  96  77  77  96  87  87 109  82  82 109
 72  77 101  72  66  92  92  72  96  87  77 101  82  82 105  77  77 101  82  87 109 101  92 117
125 105 121 129  96 109 129  82  92 121  87  92 147 129 143 167 164 186 154 164 180 160 167 177
157 164 174 157 160 170 157 160 170 160 154 167 129 109 121 101  77  87 121 101 105 132 121 125
113 109 117 101 101 109 101 101 113 105 105 125 125 125 129 109 121 117  92 121 125 109 121 132
109 109 125 105 101 121 105  96 109 109  96 105 117  96 117
 82  77  92  82  82  96  87  87 101  82  82 101  92  87 105  77  72  96  87  82 105  77  77 105
 72  77 105  77  77 105  87  77 101  82  77  96  87  87 105  82  82 105  87  87 113 121 109 136
129 105 125 117  87 101 117  82  92 143 121 125 177 160 164 167 160 167 160 164 170 160 164 170
160 164 170 157 164 170 154 164 177 164 160 180 147 129 140 113  87  92 113  77  87 121  96 113
140 125 136 117 105 117 125 117 132 125 125 147  87  96 113 101 113 121 117 129 136 101 113 121
113 121 129  96  96 105  82  72  77 105  96 101 143 132 154
 87  77  92  77  72  92  77  77  96  82  77 101  87  77  96  82  72  92  87  77  96  77  77 101
 72  77  96  77  77  96  82  77  96  77  77  96  77  82  96  92  92 101 109 105 117 140 125 143
125  92 105 109  82  87 129 109 117 160 143 154 167 150 157 170 160 167 160 157 167 157 157 167
157 157 167 154 160 167 147 164 177 167 167 183 154 136 150 132 101 109 132  82  96 113  72  92
129 101 113 136 113 125 143 125 132 147 147 150  96 117 121 101 109 117 129 129 132  77  87  92
 92 113 117  96 101 109 105  96 109 101  96 113 121 117 136
 87  77  96  77  72  96  72  72  96  82  77 105  82  77 101  82  77  96  82  77  96  77  77  96
 77  77  92  77  77  92  82  77  92  77  77  96  82  82  92 109 105 105 136 125 129 129 105 117
125  82  87 121  92  87 147 132 140 167 157 174 170 164 177 136 132 143  96  96 113  87  87 109
 82  82 101  87  92 105  92 101 117 132 132 150 167 160 174 150 132 147 125  92 109 113  77  96
129  96 113 132 113 129 140 132 132 154 154 140 105 113 109 117 121 129 125 129 132  96 101 105
101 105 109 101 101 109 105  96 113 101  96 125 101 101 113
 87  72  96  87  77 105  82  77 105  87  82 105  82  77 101  87  82 101  82  77  96  72  72  96
 77  77  96  72  66  87  82  72  92  82  77  96  77  77  92 109  96 109 132 109 117 121  82  92
132  82  92 132 101 105 160 147 154 180 174 180 125 125 132  82  82  96  72  72  92  66  66  96
 72  72  92  82  82  92  87  87 101  96  96 117 125 129 143 167 160 174 140 121 132 117  87 101
129  87 101 136 117 129 140 140 136 160 160 143 150 147 150 132 132 157 105 113 129  92  92  96
105  92  96 101  92  96  96  87  96  92  87 101 109 109 121
 82  72 105  77  72 109  77  72 101  72  72  96  77  77 101  82  77 101  92  82 105  82  77 105
 77  77 101  77  77 101  82  82 105  72  72  96  82  77 101 121 105 129 129  96 113 109  77  87
117  87 101 150 136 150 167 164 170 143 143 143  82  82  87  82  82  96  92  87 109 101  96 125
105 105 121 117 117 121 117 117 129 136 136 157 164 164 180 164 160 174 157 147 157 129 101 109
125  82  92 125  96 105 132 117 109 147 143 121 129 132 143 125 125 170 140 132 157 132 113 117
140 109 109 125  96  96 113  82  82 109 101 101 117 121 129
 82  77 109  82  77 113  82  77 109  66  66  96  77  77 105  87  82 109  92  77 105  87  77 105
 82  77  96  72  72  87  72  82  96  72  72  87 105  96 113 140 117 132 129  87 101 105  77  82
140 129 136 170 170 180 157 164 170 105 109 113  77  77  92  87  82 105 132 121 143 160 154 180
157 154 170 157 157 164 160 164 170 170 170 180 167 164 174 164 160 167 164 157 167 140 117 129
129  82  96 121  77  87 132  96 101 136 125 125 109 121 132 117 113 140 143 121 132 167 132 132
170 121 117 160 113 105 157 113 109 129 113 113 101 113 117
 82  77 105  77  72 109  92  82 113  72  66 101  82  82 113  77  72 105  82  72 101  82  77 105
 92  87 105  82  82  92  82  87  96 101  96 105 132 113 121 125  96 109 121  77  87 125 101 105
157 150 154 164 164 170 160 164 170 101 101 109  72  72  96  92  87 121 167 164 189 160 157 186
160 157 177 160 160 170 160 164 170 167 167 170 174 174 177 164 164 167 170 167 177 157 140 157
125  82 101 121  77  92 117  72  92 129 109 132 117 113 125 113 105 109 113 101 101 136 117 113
154 132 125 147 129 113 147 129 121 125 117 113 105 105 109
 82  72 101  82  72 105  87  72 105  77  72 105  82  82 113  59  59  96  72  66  96  82  77 105
 87  82 105  82  82  96  87  92 105 129 117 129 129  96 109 117  77  92 129  82 105 147 125 147
160 157 174 160 160 170 160 160 170  96  96 109  77  72  96  96  96 125 157 157 177 164 164 180
164 160 174 167 167 174 154 160 167 164 167 170 167 167 170 160 160 167 160 160 167 177 160 167
157 121 125 125  77  82 125  72  82 129  96 109 121 101 109 121 109 113 121 117 121 125 125 129
125 129 129 117 121 109 109 117 109 117 117 113 109 101 101
 82  77 101  77  72 101  87  77 105  82  77 109  87  87 117  72  72 105  77  72 105  77  72 105
 82  77 105  92  87 109 109 101 117 117  96 113 121  82 101 117  82 101 125  92 125 143 129 170
164 164 189 164 164 180 160 160 174  87  92 109  59  72  96  87  92 117 150 150 164 160 160 167
167 167 174 164 164 170 154 157 164 157 160 167 164 164 170 160 160 170 160 157 160 170 164 164
170 157 157 129 105 101 117  77  77 125  92  96 136 109 113 117 105 109 101 101 109 105 113 129
113 129 132 113 129 121 117 132 125 117 121 113 113 113 113
 82  77 101  82  77 101  87  82 105  92  87 109  87  82 109  82  77 105  82  77 101  87  82 105
 87  77  96 105  92 105 117  96 109 125  96 109 125  82  96 117  87 101 143 125 143 167 160 186
160 164 183 170 170 183 157 157 164  82  92  92  96 117 117  82  92  92 157 157 160 157 157 164
157 160 167 164 167 170 157 160 164 154 157 164 157 160 167 160 160 167 164 157 160 167 167 167
154 160 164 140 132 140 121  92 101 109  72  82 125  87 101 121 109 129  87  96 109  59  87  96
 82 117 121  66 101 105 136 157 154  82  96  72  87  92  87
 87  82 105  77  77 101  87  87 105  82  82 101  92  87 109  82  77 105  82  77  96  77  77  92
 82  82  92 117 105 113 129 109 117 125  96 105 113  77  87 140 121 132 167 157 167 167 160 174
170 167 180 160 160 174 157 157 157 157 157 140 154 157 136 160 160 136 167 167 160 164 164 174
164 164 170 164 164 167 164 164 167 164 164 170 160 164 170 160 160 167 160 157 160 160 160 160
164 164 174 147 136 157 132 105 121 109  72  87 113  66  96 121  96 132 109  96 113  72  82  82
 66 105 113  87 105 125 180 180 177 132 132 101  77  72  52
 92  87 105  77  77  96  72  82 101  72  72  92  82  77 101  82  77 101  82  77  96  72  72  87
 87  92 101 125 117 125 121  96 101 121  96 101 129 101 109 154 140 154 150 147 160 164 157 170
167 157 170 164 160 174 157 157 160 157 154 150 160 150 143 154 150 140 154 154 154 157 157 164
157 154 160 154 150 157 154 150 157 154 154 160 154 157 164 160 160 170 160 160 167 160 160 164
160 157 164 167 154 167 143 117 129 117  77  92 121  66  87 125  82 105 117  82 101  82  82  96
 96 129 140 109 113 125 164 143 147  96  77  72 101  87  96
 96  96 109  82  82 101  77  82 101  72  72  96  87  87 109  77  77 101  87  82 101  87  82  96
109 101 109 117 101 109 113  87  92 121  92  96 113  82  96 113  87 109 117  96 113 121  96 113
125  96 113 117  92 109 113  87 101 121  96 105 129 105 109 125 101 105 121  96 101 121  96 105
121  96 109 117  92 109 113  87 101 113  92 101 121 101 113 117  96 113 117  96 109 117  96 105
125 101 109 121  96 105 125  96 105 121  82  96 121  72  82 117  77  82 132 105 121 101  92 121
140 150 164 101 101 105 113 101 113  96  87 113 105 105 136
 77  77  92  72  72  87  72  72  92  72  72  92  72  77 101  82  82 105  87  82 101 105  92 105
113  87 101 113  87 101 117  87  96 117  87  96 121  87 101 125  87 109 125  82 101 129  82 101
132  82 101 136  87 105 140  92 105 136  92 105 132  92 101 129  82  87 129  77  87 125  77  92
125  77  92 129  82  96 129  82  92 125  77  87 129  77  92 121  72  92 121  72  87 125  77  87
121  72  82 113  72  82 109  72  82 113  72  82 113  59  72 101  52  66 117  87 101 121 105 125
105  96 105  96  92  92 101  96 105 101 101 117  96 105 113
 82  82  96  77  77  92  72  72  87  72  72  92  72  72  96  72  72 101  77  72  96  96  87 105
113 101 117 109  96 113 109  96 109 109  92 105 109  87 105 109  82 105 113  82 105 117  87 109
129  96 113 129  96 113 132  96 113 125  96 117 121  96 109 129 101 105 125  87  96 121  87 105
121  87 101 125  92 105 121  87  96 109  77  87 101  72  87 105  77  96 109  82  96 105  77  92
109  77  87 105  77  87 105  77  82 109  77  82 113  77  87 101  72  87  92  72  87 132 113 125
117  87  92 117 101 101 105 101 105 109 109 121 105 105  92
 82  82 101  66  66  87  66  66  87  77  77 101  77  72  96  82  77 101  82  72  92  82  77  92
101  96 109  92  92 105  92  92 105 101  96 109 101  92 105 105  92 105 105  87 105 109  92 109
109  92 109 113  92 105 117  92 109 121 105 121 101  92 105 132 117 121 121  96 105 125 105 117
121 101 109 121 101 109 113  92  92 121 113 105 113 113 105 113 113 105 117 113 117 121 113 132
125 113 117 129 117 109 129 113 113 129 113 117 132 113 113 129 117 117 125 121 121 147 121 117
160 113 101 136 109  92 117 113 101 121 117 109 105  96  66
 82  82 109  72  72 101  72  66  96  77  72 101  87  77 101  82  72  96  82  72  92  87  82  96
 96  92 101  87  87  96  87  87 101  96  92 109  87  77  92  96  87  96 101  87 101  92  82 101
 92  82  96  96  87 101 105  92 105 105  96 113  87  87 101 105  96 105 125 109 117 113 101 109
105  92 101 105  92 101  87  72  59 140 136 113 189 189 167 160 160 129 136 132 129 143 140 164
154 150 150 160 143 121 183 150 143 154 121 125 180 154 154 164 157 150 157 164 150 150 147 125
150 132 105 150 132  96 186 170 143 174 160 132 109  92  22
 82  82 101  82  77  96  82  72  92  87  72  92  92  72  96  87  72  96  82  72  92  82  72  92
 82  72  87  82  77  92  82  82  96  96  92 109 101  87 101  96  87  96  87  77  92  77  72  96
 77  77  96  82  82  96  87  82  96  87  87 105  77  82  96  82  77  92 101  87 101 105  96 105
 96  92 101  92  87  96  87  77  77 105 105  92 136 140 125 129 129 109 129 125 117 121 121 121
121 125 117 189 167 147 199 147 132 174 129 121 186 150 143 180 174 164 140 160 140 105 121  77
132 140  92 167 157 101 183 154 105 223 202 164 121  96  22
 92  96 109  96  96 109  96  96 109  87  87 101  87  82 101  82  77 105  77  77 101  87  82 105
 96  92 113  87  82 105  77  77  96  96  92 109 105 101 113  92  87 101  92  82 101  77  72 101
 82  82 101  82  82  96  82  82  96  77  77  96  77  77  96  87  87 109 117 109 125 105 101 113
 92  92 105  87  87 101  87  87  92 121 125 125 117 129 129 121 121 117 147 132 121 136 117  92
121 101  72 164 147 125 193 177 157 205 177 157 217 180 164 183 167 154 150 157 125 183 180 132
255 253 202 208 196 125 154 136  44 202 186 129 125 105  35
 72  82 101  52  66  87  77  87 105  59  66  82  66  72  92  72  77 101  72  77 101  82  82 101
 92  87 105  87  82 101  87  82 101  92  92 109  92  92 105  96  92 101  92  82 101  82  77 101
 82  77 101  82  82 101  77  82 101  82  82 101  77  77  96  96  96 113 214 211 205 129 129  96
 92  96  96  96 105 132 113 125 129 129 143 129 109 129 109 121 117  92 150 121 101 147 109  92
160 117  87 157 147 109 150 167 136 202 189 160 202 157 132 196 174 157 183 180 157 208 189 164
211 177 132 183 164  96 170 167 117 180 170 136 140 121  87
