P3
# 8-bit ppm RGB
28 27
255
 55  71  92  66  71  92  71  71  88  71  75  92  71  80  92  60  80  88 168 187 179 171 195 171
117 154 117  60  84   0 195 190 162 130 139 124  80 110 107  84  88  96 148 130 124 157 165 145
198 231 187 241 255 224 171 249 200 130 206 179  96 171 151  96 136 124 100 103 100  32  66  75
 80 117 117 133 157 151  71 100 100  41  66  75
 60  71  92  66  71  96  66  71  92  71  75  96  71  80 117 148 151 192 211 211 211 136 148 100
 92 120  60 139 151 103 182 182 154 136 142 124  75  92  84  75  80  88  88  80  71 110 120 100
 66 100  32 179 208 154  80 130  48 117 154  84   1  80  21  41  75  88  71  75  92  32  60  84
 21  66  75  80  96  96  71  84  92  66  71  88
 66  75  96  66  75  96  60  71  88  66  75  92  71  80 107 182 176 203 171 151 154 100  96  71
 80 100  75 114 124 103 162 165 151 145 148 136  88  92  88  66  71  80  55  66  71  48  66  66
 71  88  84 107 110 100 107 103  80 103  96  55 100  88  66  80  80  75  60  71  80  48  60  84
 41  60  71  55  60  60  60  55  55  55  55  60
 75  84 103  66  75  96  55  71  88  60  75  88  66  80  96  75  75  96  84  75  88  80  80  88
 60  75  84 100 103 114 154 151 151 120 120 110  96  96  96  75  80  88  80  84 100  55  66  96
 84  96 130  88  92 139  75  75 107  84  80  88 157 151 145 114 114  92  60  66  66  55  60  88
 55  60  75  88  88  88 110 110 110  88  88  84
 71  84 103  60  75  96  55  75  92  55  75  88  55  75  88  60  75  92  60  71  84  55  66  80
 66  75  84  88  84  88 103  88  80 100  92  71  92  92  75  92  92  75  75  80  80  60  66  80
 60  71  96  71  75 110  71  71  96  66  66  80  66  60  66  60  60  60  55  60  71  71  71  92
 60  60  80 124 124 133  92  96 110  80  84 100
 80  84 103  66  75 100  71  84 103  66  80  96  60  80  92  66  75  88  75  80  96  80  71  92
103  80  88 136 117 114 162 145 133 130 127 100 100 110  75 133 142 110 142 154 139 110 117 117
 66  71  80  71  71  92  71  71  92  66  66  88  66  66  88  55  60  84  55  60  84  60  60  84
 66  66  92  71  75 103  75  84 114  80  88 124
 71  71  92  66  71  92  66  75  96  66  80 100  60  80  96  66  75  88  75  75  80 103  75  75
160 114 100 182 148 124 157 130 107 211 208 195 192 208 192 192 208 190 136 157 142  84  96  84
 84  84  84  71  71  80  71  66  80  66  66  88  55  66  84  55  66  84  55  66  84  60  66  84
 92  92 107  92  96 110  88 100 107 100 107 110
 71  75  96  60  71  92  66  75  96  60  71  96  66  80 100  66  75  92  71  75  71 133 120 100
190 160 127 171 154 103 117 114  80 145 148 139 168 179 171 139 151 139 110 120 103 110 110  84
110 100  84  92  84  80  71  66  75  60  71  92  48  75  92  48  66  84  66  71  84  88  92 103
110 114 120 103 103 107 107 107  96 120 120  96
 60  75  92  60  75  92  66  80 100  55  66  92  66  75  96  71  80  96  60  75  80  80  71  66
142 120 100 160 160 127 200 218 187 255 255 241 187 195 165 100 103  75 124 124 110  92  80  75
114  88  96 110  96 114  71  66  84  60  75  92  55  92 100  48  71  75  92  96 100 107 110 114
103 110 114 114 114 114 103  96  96  88  84  80
 66  80  96  60  75  88  75  84 100  60  71  96  71  80 100  71  75  92  80  80  92  92  84  96
107  92  88 117 117  96 124 133  75 190 192 117 136 133  66 133 130  92 136 130 120 124 114 130
 92  75 107  84  71 114  80  66  96  84  88 100  88 110 114  80  88  84 120 117 117 110 110 110
100 103 103 107 107 107  92  84  92  88  75  92
 55  75  92  60  75  92  71  80  96  66  75  96  60  75  96  71  71  92  71  60  84  66  55  80
 71  60  71  71  66  66  80  80  55 107  96  41 114  92  66 107  88  80 151 139 142 154 145 160
120 114 130  88  75  96 100  80  96 107 107 117  96 114 117 103 107 107 120 110 110 117 114 110
 96 100  96 124 124 117  96  88  88 139 124 130
 55  71  92  60  75 100  71  80 100  66  75  92  60  71  92  66  71 100  71  71 100  75  75 107
 80  80 107  66  66  92  84  80 100 103  92 107  96  75  96 124 117 136 151 151 165 154 148 162
145 133 139 110  92  92 114  92  96 110 103 114 114 120 124 107 110 110 103 107 103 100 103  96
 92 100  88 110 110  92 103  96  88 124 117 120
 60  75  92  55  71  92  55  71  92  66  75  96  66  71  96  75  80 107  60  71  96  60  71  96
 66  75  96  66  66  88  96  88  92 100  88  80 127 114 124 151 151 176 139 151 165 154 151 154
148 130 136 130 107 120 117  88 100 117 103 114 107 107 114 107 114 120 107 124 127  88 103 103
 84 100  92  96  96  75 100  88  84 110 110 114
 71  80  96  60  71  92  66  75 100  66  71 100  71  71 100  66  71 100  66  75 100  60  71  92
 60  71  88  84  84 100 110 100  92 127 120  88 142 139 142 117 117 154 114 120 133 117 120 110
124 124 130 130 120 145 107  84 103 100  88 100 114 110 120 103 107 120 127 139 148 103 114 124
 84  88  84 110 107  88  96  84  80 103 103 110
 66  75  92  66  75  92  66  75  96  71  75 103  71  71 100  60  66  96  55  71  96  55  71  96
 66  80  96 103 100 110 110  92  96 117 110 107 124 127 136  75  80 110  75  80 103  71  84 103
 88 110 127 133 136 151 127 114 124  84  71  75 107  96 107 100 100 117 110 124 133 130 133 136
127 124 124 124 117 107 110  96  96  92  96 107
 75  80 100  66  71  88  66  75  96  66  71 100  66  71 100  55  66  96  48  66  96  71  71 100
 88  80 100 100  88 100 100  84 103 133 130 151 110 114 133  80  75  96 151 142 168 120 120 160
130 142 162 142 142 148 148 139 142 114 100 100 100  80  92 100  96 117 107 110 120 107 107 107
114 110 110 110 107 103 114 107 110  88  88 103
 71  71  92  66  71  92  66  75 100  55  66  92  55  66  92  60  71  96  48  66  92  75  66  96
100  71  88  96  75  84 133 120 130 154 151 165 107 110 124  88  75  92 142 117 133 157 151 171
139 148 160 148 148 151 151 142 148 142 127 136 117  92 103 110  96 107 117 114 120  84  80  84
100  92  92 110 107 107 107 107 110  80  80  92
 71  75 100  66  71 100  71  80 103  60  71  96  66  80 103  55  66  92  60  71  96  80  71 100
 96  71  88 117  96 100 165 151 157 154 148 157 103 107 117 103 100 110 162 151 157 154 151 157
148 151 154 151 148 148 160 148 157 142 127 145 127 103 114 100  80  80 130 117 120 103  92 100
 84  80  84 103 103 107 107 110 114  88  96 103
 60  71 100  55  66  96  66  75 100  55  71  96  55  75  96  41  60  84  66  75  96  96  88 110
 96  71  84 133 114 117 139 117 120 151 145 151 127 133 136 124 124 127 133 130 133 136 136 139
127 127 133 148 139 148 133 114 124 145 127 139 124 100 110  96  66  75 117  88  88 114 100 100
103 100 100 103 103 103 100 107 107 100 114 114
 66  71 100  66  71 103  60  71 100  60  71  96  60  71  92  60  71  92  71  80 100  75  75  96
 92  75  88 110  96 100 100  80  84  92  80  84  88  84  84  84  80  80  84  75  75  80  71  75
 75  71  84  84  71  96  88  71  88  92  71  80  96  75  88  88  71  88  88  71  71 136 120 110
165 148 142 142 124 120 136 117 114 127 117 110
 71  71  92  71  75 100  60  75  96  60  71  92  71  75  96  71  80 100  60  75  96  84  84 107
 88  80  96  92  80  92 100  84  92 107  92  96 100  84  88 107  92  96 107  92 100 103  92 100
103  92 100 103  92 100 103  92  92 107  96  96 114 100 100 114 107 110 124 124 117 157 139 124
174 139 130 179 142 139 171 130 124 154 120 107
 80  84 100  71  80  96  71  84 100  71  80 100  75  80 100  71  75 100  75  75 100  71  71 100
 66  71  96  75  75 100  88  84 100  88  84  92  88  84  92 100  84  96 114  88 100 100  84 100
 88  80  84 103  96  88 124 114 107 117 110 100 107 100  92 139 133 127 171 165 154 168 148 127
168 133 120 168 145 142 176 165 154 154 133 110
 71  80  92  71  80  92  71  84  96  80  88 103  66  75  92  88  88 103  84  75  92  66  71  92
 55  75  92  71  84  96  71  80  92  66  75  88  66  75  80  88  71  66 114  75  32 103  84   0
 88  84   1  96  88  41 117 107  71 133 127  96 120 117  88 117 107  80 148 133 103 182 160 130
171 136 114 157 148 136 136 154 130 157 148 107
 75  75  88  75  80  92  75  84  96  71  80  92  66  75  88  84  84  96  84  75  88  75  80  92
 71  88  96  71  80  84  66  71  80  60  66  84  60  71  71 148 117 100 255 213 165 251 200 110
234 187 117 192 162 110 151 139  84 171 162 114 142 133  84 179 162 124 216 192 157 187 165 124
162 139 107 157 157 136 117 145 103 165 168 110
 80  75  88  80  80  92  75  84  96  84  92 107  66  80  96  80  80  92  84  75  88  80  84  96
 60  84  96  55  66  80  71  71  84  48  55  75  48  66  71 139  84  80 198  88  48 198  92   0
246 154 103 255 208 160 171 157 100 211 198 148 224 208 157 244 221 165 229 195 145 190 168 124
179 168 136 157 168 151 145 179 157 176 190 162
 75  80  96  80  84  96  80  88 103  71  84 107  66  84 103  71  80  96  80  80  96  75  84 100
 60  80  96  55  66  88  75  75  96  60  60  84  60  66  80 120  88  96 182 127 130 151  88  92
231 182 157 221 198 142 176 176 117 187 184 127 255 254 192 254 239 162 254 226 165 206 192 145
157 157 124 145 142 124 136 130 120 120 117 114
 55  75  96  75  88 103  92 100 110  71  84  92  75  96 103  71  84  88  75  84  92  84  92 103
 55  71  88  48  55  80  60  60  80  66  66  84  66  66  80  71  66  75  88  75  84  96  84  92
176 168 148 190 190 142 171 182 133 168 174 120 195 198 145 231 221 165 241 218 165 226 218 168
216 224 184 249 231 206 203 157 142 160 136 136
